<mxfile host="Electron" modified="2023-08-01T10:54:31.690Z" agent="Mozilla/5.0 (Windows NT 10.0; Win64; x64) AppleWebKit/537.36 (KHTML, like Gecko) draw.io/21.6.5 Chrome/114.0.5735.243 Electron/25.3.1 Safari/537.36" etag="paLXhn4Wv3QTZLMne1Yp" version="21.6.5" type="device">
  <diagram name="Page-1" id="ppiexS9tkFnnWlRn-rtj">
    <mxGraphModel dx="4700" dy="1774" grid="1" gridSize="10" guides="1" tooltips="1" connect="1" arrows="1" fold="1" page="1" pageScale="1" pageWidth="850" pageHeight="1100" math="0" shadow="0">
      <root>
        <mxCell id="0" />
        <mxCell id="1" parent="0" />
        <mxCell id="VBHTwR_-cWAQWf0YRY0K-1" value="" style="shape=image;verticalLabelPosition=bottom;labelBackgroundColor=default;verticalAlign=top;aspect=fixed;imageAspect=0;image=data:image/png,iVBORw0KGgoAAAANSUhEUgAABEoAAASQCAMAAADcPVqbAAAAAXNSR0IB2cksfwAAAAlwSFlzAAALEwAACxMBAJqcGAAAAwBQTFRFAAAAcQo7cQo7cQo7cQo7cQo7cQo7cQo7cQo7cQo7cQo7cQo7cQo7cQo7cQo7cQo7cQo7cQo7cQo7cQo7cQo7cQo7cQo7cQo7cQo7cQo7cQo7cQo7cQo7cQo7cQo7cQo7cQo7cQo7cQo7cQo7cQo7cQo7cQo7cQo7cQo7cQo7cQo7cQo7cQo7cQo7cQo7cQo7cQo7cQo7cQo7cQo7cQo7cQo7cQo7cQo7cQo7cQo7cQo7cQo7cQo7cQo7cQo7cQo7cQo7cQo7cQo7cQo7cQo7cQo7cQo7cQo7cQo7cQo7cQo7cQo7cQo7cQo7cQo7cQo7cQo7cQo7cQo7cQo7cQo7cQo7cQo7cQo7cQo7cQo7cQo7cQo7cQo7cQo7cQo7cQo7cQo7cQo7cQo7cQo7cQo7cQo7cQo7cQo7cQo7cQo7cQo7cQo7cQo7cQo7cQo7cQo7cQo7cQo7cQo7cQo7cQo7cQo7cQo7cQo7cQo7cQo7cQo7cQo7cQo7cQo7cQo7cQo7cQo7cQo7cQo7cQo7cQo7cQo7cQo7cQo7cQo7cQo7cQo7cQo7cQo7cQo7cQo7cQo7cQo7cQo7cQo7cQo7cQo7cQo7cQo7cQo7cQo7cQo7cQo7cQo7cQo7cQo7cQo7cQo7cQo7cQo7cQo7cQo7cQo7cQo7cQo7cQo7cQo7cQo7cQo7cQo7cQo7cQo7cQo7cQo7cQo7cQo7cQo7cQo7cQo7cQo7cQo7cQo7cQo7cQo7cQo7cQo7cQo7cQo7cQo7cQo7cQo7cQo7cQo7cQo7cQo7cQo7cQo7cQo7cQo7cQo7cQo7cQo7cQo7cQo7cQo7cQo7cQo7cQo7cQo7cQo7cQo7cQo7cQo7cQo7cQo7cQo7cQo7cQo7cQo7cQo7cQo7cQo7cQo7cQo7cQo7cQo7cQo7cQo7cQo7cQo7cQo7cQo7cQo7cQo7cQo7cQo7cQo7cQo7cQo7cQo7cQo7cQo7cQo7cQo7cQo7cQo7cQo7cQo7cQo7cQo7cQo7cQo7cQo7cQo78yti0QAAAQB0Uk5TAAMJCw0QExUYGx4jKC41O0FGS1BUWF1hY2RiYF9eXFpWU05HOjMtJSIgHRoXFBEOCAECBRIhKzE4PkRKV1tmZ2VZUT02MBYKJC83am91e4GJkZiepa6zt7q8wMLEwb+9u7i1saqdlY6Ig392cWscLE90h5SfqLC+w8fM0Nbb4OXq7vH2/f/87Ojk4d3Z1MvGua+jl3hsKh8MBHKc8vP09ff4+fr7/t/XzpJ6PwcGOXeModzw7eeahnDS6dqmhUiy5o1zQg8yRZPVUqniyJl8SXmr08qAQGg8z+PYi25VGdEnTK003pbNaSmgyYK2iu8mbaSEtJDFfqdDm+uPfaxNokXAKIAAAPBLSURBVHic7J0HVBNZ98BN6EVU7L0jncwEsXcg6Np7w75rB8uqiCCQDKEqVkgU0p9YEgsBXcDCKlbsrgVWEQURy2Jv2D7Qz12JgJRJ5gXe75z/Of/z7e7wcue9O/fed0utWggEAoFAIBAIBAKBQCAQCAQCgUAgEAgEAoFAIKorNLqOrp6+gaGRsYlpbbM6deuZ12/QsFHjJk2bNGveokXLlo1atW7Ttl37uh06Wph2srSytrG1s3dgUL1qBAIBDxiG4TizUJM4GtjaGHfu5NSla7fuPdq17dmredPefXr3bdKsWePmzVs06temv3n3Ac4uTl91iau+HgvHsSKo/gUIBIJKilQIznI0chs4qFu9+j0bNe79y+AhQ4cNHzFy1OgxY8eNnzBx0uTJkydNcnefOHHilKnTps+YOevX32bPmTtv6PwFC3s379eublcX085GrvYsGo40CgJRM8EZDgYebp4DFjVbvGTp78uWT1/htdJ7lY/vaj//ADaHCCwRLjsoOCQ0LHzNqrUR7uvWb9i4ZNPm5m3M60RG2drzGHykTRCImgNOYzJ09AysOtZrtWX41uVea0IDomMEQo5IJJZIpFKZjEsQoGRNEggIgiuTSaVSiVgk4ghjooO3xW6fvG7Zjp3N2u1yMXF1YMkVfJzqX4hAINQLRmPSdW0tPXebN9+zd9/YSaviQvyVHGlpiqMccCUiATs+YbXPynWz9h/4o2H3QRZutjwGk4YMFASieoJhOF/HzsS5fu+de0fN9ErclsQWcSuvQ1QgJIL4kGTvdQd/OzSk8eGOJq46fBxpEwSi2oExdew6d2nfasiOIxGxKWwZaTqkONLo4LhVE5f9ebTVMScPexaf6p+NQCDIg0lPde18/ESv+SfHeJ3yYwvFUgKoSZUAQlbo8cSHJk4cveSX090iDfV0FDSqfz8CgagyOJNub3K8e78ts89MSUwLihGT59OUoVBkougk37NHzp1vfmGQqY0uA0ViEQjtBtMxOt7g4tJLEy+HxgurEl6tOFyR0i/8ysxzfzW7ampLR3ETBEJrkdt1qtNw8clx27cFCblAo3rkC6DQ3QkITZyyYe418y5W+jwm1QJBIBAVha9r2+l6wz37p99IF4ilXM3rkf9DyMScoIxJy/6+eauuZ2YqHQVOEAjtAWfyPAbd2rR1gk+8UFJK3qoGATJRTMrtdb+e7zcg0pXORHETBEI7oKVm3Rk6epKvf7QEUK1GvsEVsZN8V979s/cuS3vk6CAQ0IMp9Cy79Z2z/nZKtIyC8EgZACATJCVPPjis+S43fToyTRAIiOE7eGQv+mPkpBwB1YqjNAA7Y9rGBf0HRdkzUNgEgYASjM8w6tBk5MRtAurDI2VBRIdNvbfwhKkdSl5DIKAD4+tkurQ5NCbXjy0iANXaokwAV6QMSRy34/7VTnoKVPaHQEAErrDLO3xzxDgffw6gWlOUC0IcEOf+YF7rDib6clT2h0BAAl/P8/TQDQ9DxFRriAohCfKZ/tsf7Sxc5UiXIBAQoHA0vfPocZhSQgCqtUOFAIArCVqzfFibLpm6CnSjg0BQCcZn2Q3sN2dGeLyYuozWKsAV+p8at+OXepEGdNSQAIGgCoymY5Pd6J/pvkp19R9RP0CSvy1i38X+LplyFIJFICiBxjKs02T2lLAYqtVBVREnbL+7pPkgDzrVEkUgah4YM9XkarMdK3KEUrjTSMoB4IoDwqfdu9YtSleBLBMEQoNgCvsn3Z/un7g6Wkq1HiAHQhKd4DXy/gDLVBQzQSA0h9y6+54zucFCTfRE0xSA4799a19ne2SXIBCaAXPoVG/+Bu8EodZ7NqpwQt139LLQR4YJAqF2cLqBRf9N+674cQhA9cknHcAVJi+ft8jUnolMEwRCnWB8O89Fh8b6BGh/rLUUZMo1z/64aqyDSv0QCDXCt6n/p5c/R33TJ6iHkMYnbrhm5ojyXxEI9YAzbI/3fP7YV1ldDZJvEIKQSSebdfVgIS8HgSAdGs/4euPhL2LZgOqTrgkEceNf9t5lrIsCsAgEqeBy266Nl77yqyZZJOVAlvRqY5NBmQzk5yAQpIHLXY8337rST6DZoViUAmQCv5XnGpsZ0lFpDgJBBhiNYeDZcO+0bdHVKR+tPMiic9bNbjHIWoePlAkCUWWYjk5ths30jalpiqQIwPZdt7eFWSaaE4pAVA1M4RDZbuiM8Bi4BlFoDAA4YePm9HK2QXkmCETlweV2Todfr1+jFFX3+9/SIcTx4etmN7se5YAmcSEQlQJj6rn12PkmMUi7WraSDpDk+0442WeXFR3FTBCISsA0ejvkzSp/CdVHGQJk7G1eWwcPsGZQ/U4QCG0DoxvtbvruYYKYAFSfYxgAMkFaxO+/7LLSRTETBKL8YCwb5+YjJqSLtLL3s1oAMk7QpI2/dItyQBmwCET5wGi8vNYjIpI4NTfYWiJAFH97VJ+udihkgkCUC13Pfn+Oj4tGiuQHAMfvytY+uzPRZQ4C8TP49k5tn7/ICKhBOfIVAYhWT9rYt4MRA1kmCEQZ0HRNDg+dGYdcm7IocB/RqosBus1BIEoDY9oNuDg9XUjU0NzWcgK47Csn+z1RoLnlCEQJYDjDZvfTZ9sLxMgk+RlEdNrEvf1NU1HRMAKhCs6wzW783t2PA6g+p9pBTOylPe0tddFtDgJRDFzPs+2B8atFgOojqjVwld6/3u9gREe9kRCIb+Byh6h6H2aERcsA1QdUewCEKCFiaaMurqg3EgJRBEaTG1qYbzq4KkgMqD6eWoYsOm7GgTYuhsgyQSBq1WLaZ/V7/vGyfw2v/60c3IDYmX/1N+UhXYKo4WB8B9NF58dmKAHVh1JbIZS3l83vbqmLnBxEDQZT2Gcd3nNpTby4JnZbJAmuKGnt74PfRqWiMj9EDQVnprp137IhNwglklQNQhgy+dz9btYs1IAAURPB6Da7jj677Y/uf6sM4ArSH+5vmu2IdAmixkFjWdfdvPVsiBjlyJMBkAly1v3dcKCBguoXi0BoFFbUgGa/TQrhoNZGZAG4AT5jztd30kc1w4gaA8bnWbQY+cpfimIkZFLo5pxaNr+eCQ+lrCFqCIzOre9dCRKiWxuyIURBsev3HDOSI12CqP7gOm6f5k7IEVB97KonQBz8cNTgY51RzhqimkPTtay3+E04GkihPiQpEed+2WWExvkhqjE4027Q5jG+yCJRM8rtW1u52DGRZYKolmA0um2X5ueuBHNQkETNyGLSvU62OG6LaoYR1RCcbnu81z/TwwTo2kYDcKPDpv/TKtsQKRNEdYNpX7vf8xe+aCKFxhD4Pj7UZqABA7k5iOoDrkjNM389LjkaZaRpDiATZswcdtrFloWaNiKqB7jcILL9xTer4kXIJNEoQFRwaszcntkePCZSJgitB+M7uN05v2yVP+qRpnmAJMhn5oFe2ZkMNOgCoe0wog5vWnbbH2WSUIQsyGfG3426oDo/hFaD60R1W7ghN1iibUESLocdUOCflJRUEJQfLRRr8dRRQEgDYmfMbTDQDnWARWgrOMuma5+RXv4ibUkkIWRiYXRAQUL6tlMR48eOuXRm2ayP62dM8Hp4O3xbml+wf3x+dIyQI5LItCvoQ0iUl2edb1fbFd3mILQTumfjrTcKtKi1kSQ+bc3K6ctGLjnayHzXbufsjh2zzQbVqdt+Ub/eQ+a+3LrsyNSI3MsZ2/wCtM1dAxJ22OO57dx0kC5BaB24o0uv9xNDtSMjDYgK4tZOf/bnnj6N2h7ucNzJMtNRV4f1BR2eg56+rbVJ5EDnuhcW3Wrdssn9wXvmvhw1c7JPSDSgeuHlR1pw6u68/k76qAMsQqvg21v0HL7OV6ANPdIkQRmv7v427GnPYy5Wrva6dBqO41ghX38J9pXC/41GL9QqjvoGhkZWT1wG1O+9c++o5dOuJAcLtMN/AzL/G5eKeiOhFgQIrQGnG58YNj2B6sPzcwiJkJ0U+3hO425urryKldLSdPSNssx63P971qvkhIAYkVbETzg+s+a3N0EdCBDaAUaz7zp/agLsVXuA4EoD4ibPOtDS2ZYn51c48QLDaXwFXde20+42O38ddyONLYZfmxBStu/MTd30UP4rAnownGF7vO+7tfEyqo9NmQCuJCBjyue5vRfViTSq0lcaUxRqE+d6Pa/N2zo+PL9QnQCqf1uZEKLgtQ8WdvNQoJw1BNRgcoPsRnOmpouoPjJlAYBMGeb+YF7jt5G25Nxp4HJd1yfX+53fP25VQowU8gCR2C9iY9NBNqidNAJiaKmmiw5MSIf7rlQUn3Zq/NLG2ZkVjI78FL5+3qdNG6YmpithLxJImrSjl4U+SoBFwAkuT+1cb+fMcKUE3piBTBiffnbZnPt3uhiySO8yhtHkqUYu7ZsMX56bpoR65KAsJsT9z36ejihnDQEfmMLO6dOez7nwlu0BmSh6dcSyQ83quRjr09XU+hRn6HkMvNB7+JHEBIEMUP2TS4fLjhs77HRtfdS1EQEbCmPzoZduB0Ps24gTtt8d3udwnq2OmtO0aDqGFvUXn3OHPGIUcHnMB3NLdDOMgAiM72A14P7nG/EyQPUBKQWCE+wz7dwQc09DliauLjAaz7pDs5djEwsg9nOANH77g83dosgOGSEQlQRn6JvW+2PUqxRYM0mAJCDM6/P5W4Ms9RiayqjAmToGnj0WP5uco5QBqgVQCoArCJ14sm8da12UTY+gHpzpmHX44uhcf0in7QGumB03fnazXSaOdM1mZmEKB6s6jV5OTIuGNg4NZNE5E963dM6Uo3bSCIrh6z1pO+zjmiRowwKilLXPdrY9bkPJiCka3WBg23l3fSCe/CNThhUqExd9JgXiQSD+Dya37dhv2JjbSVICUH0kSkQan7h+78J6pnZUDXHACo22yE/zf/VK4wCqhVEKQJYfO2NOv+OuqMwPQREYyya74aEXGQGw2u/S+DXrPyzyNGRVvMCGTDHxedaDeu+flA5tBTGQKcNn/nXawgD1WUNQAUbP6rXxrB8H1l6LhDRp/NDrdgoIogA4P9W0wa+XlVxYU+oBIdk2bpi5G496WSFqHDom9UdE+MVA2/VUFDbzQw9LXUi+szjD4PitvWejYTVMAgMlAb4zDrQ1TUU3wwhNQuNZ3jn/MVxI9f4vDW7+qY/z6kfqQaJIisDk+oN6/7YyAdpk4EBZ0OW7f512skdDcxAaQ+5R9+lBH2g/sTJl8uO55iYMqsWkCtOx9uAN3kkcSENLhT5hdOylTYfdUlGaCUITYExeXuNZsWxYHX+ZIH38vMPWMFaqYTS7Lk3f3IY3BRZwo8PXH91ljWaDItQOptAf2Ov9xGBIE9IIcfTlN/Pv5DlCWkBP4xkPaLbDK0QAbbCa479239H2TnaoNxJCnWA0XdO2h8b5RlO940uGkMWvOnPRvBPMFjpON7re9OSkFDEBqBZXKXBCzm4Y2t9TX4F0CUJdYHSjbovHJAsB1bu9ZLgBPjNfn7BiUS2mn4DJ9Z0379ueJKZaXqUii088M/ROlj3KgEWoBRrd0KzxSO94SDPSpEE+yz98eqIL/wUERtMxHnB09NokWGMmgCsuSFw25EKWPYwRJ4SWg9MzO/b7Z11ODJTbH0jYyWPOt4vUkiEvGNPB7djTZ6uSRFBKM7BoaHLCygdHzZ305UiZIEgF55k2/HN6shLKRvIASEOmHaqflQq/RfIvNJ2oY0/fxAoIQLX0SgEIU7zfXOzhBkuWH6J6QLfqcX65LxvOa5tATtqKEY1qa9sMS5qOtfnQZZfhHfMBxAlXNiw+0RlNGkaQA6Zw6Hx188EbBRICUL27SwBw0iYubT7IUPtabuB8+07tP3w8xYbVywEygd/Zd78MsEaN1hBVB6PpWg14+uvDeDhjhIQ44PbWZl0MtDM+iDEdntw54JUAbQIs4HLSp7xv1dEV3QwjqgimMNh98+Btf1jbbQiT39w3s9OOYGtJYEy9yDYnb3ColmPpcGPSpuxtYIIuhhFVgZbq1v7m/gg/DpxJ8tyYNcs2HbbU0VpFUgQmt+2w+UGiElAtzdIA3PzYI6/Ns3SplhRCa2E6dDLf8uBsiARQvZtLhpMzfe4nN+334zGG9bHzY32FsHo5gYBQ3l529Jix9osaQQmKzN031/vCanoTEoHP/v7G1WTyLabffvblACm0yiQwUBb7uU8Xe1Tmh6goGI3V8ej6WEiDrYFAEvxwZOOO1adOhObg1m7p2gBYq/wKJS4KWnWvlWcqUiaIioDRHAc2+i0iCU7Xpmh+y4T3Ta4bs7Ty2qYU+HYdmrz3CuEQgGr5lgLg+H5pJ11t1DdC/dB4T9o9nwrrnEogDvHa2NS5+m1phX7Ha+dWBsOpv4vgKjNmPjptag9pBwcEbOAMw917xqYBOG9tCFFB4udrLvZaltpaPvipLpvPXIZ4gjshCB8zv3tnHeTmIH4Gxtcx2t3018vxcJbAA47fyq19ukVV171M41ld7731YQKsM1MDuZzgGxsWvLVMVVQn5xJBOhiNZd2h6cvxoXAqEkKav33r5rrG1XnGLV8n6u3m33OhbUAQSHBCJp9bWNfSQesKFRCaA5O7mjXZsSIH1qKQGJ8xe94a06v5FsZZ1t2PPrsMa+1kIcLQVxuv1cmsVlFvBIngdNvjDYdPWB0jg1GTAFHSmiPD2rnpVlPX5jswvq5V+w9jTrGplnlpAK44dOr7Rl2NdJBlgvgBmk5mds9DY33gzJPiipK2v9n0yUm/ZrjoGNMx7/CjdaHR0DYgkCp9Zwxv5ezBq/6aHVEhMJqjS+uX05OVMN5EAiBjh38ccsIytdrd/5YKxtTNO33gbAGUFuIXpMqwdX/362JQM5Q7opww9Wu3nL0uLl9K9f4sEa4g9uPQO09q2gzKwpfS7N7ZeHhDJtyA8Mdzeh23hW52GYIiMLltdq8545KVUgJQvTtLQrnm41/9I+1r3tcPl9tc37zPuwBaL4eQBawZO6eRsyG9xr0bxI9gcoPatw6s2xYtA1TvzJLgxvitOHC4Uw0t/cAZNgOGHAmLgVaZAGlM3OMDt1xcq0lZJaIKyC1Pn3wVwoG1jix67d/torSv1yJp4ArXY0vW5kMbMQkEMk7IxL31Tar7FT2ibHAdy3ZLpoex4YyREMK4FwfaDDSo2Q28aI4uPfd6BUFrmAQGSvPDCi0TJ/2a/Z5qNLhO5/ZDlp2CMxcKFPrhyw/1HFg9i20qAqZwdL52bmUKnBnIX1GeWj+sp7Z22EVUFYWhc999p6LhtJ1l0asnHDK3QnMTvsB39Nw8+kYQtMn0hYjCXgyrH2mvRZOIEOSA8XVMGz3I9YdydwKuYPX4Q4uyHGpmsPVHMFzh2qXl6MQgGNN+vgKk7Jzxcz+5pTKR9q9JYHy9yDZL1qXHQOnbcGPCZg5DtwLFobGsr/bZv7YA2tGggUASn3hmZzsnu5p3bV9zwViWPV6PzYCzxgMQ/l6z21g4oiCeChjDpu6Cz5ej4ewj8wVp0o03F+90Qm5ODQFnGJjd3xAOaY80aXzspcEuejUss7V8YPLMq3OnQzoB/isg/8aGm93dtGl6M6KS4HLXLg1fTgqB0lAG4oLbsxbX60xHmqREMGZqXrvn6+LgvHT7ApeT8PDB0cN5+ug2p3qDKfQj+z+aGa6EMU2BkAT4nJl/2EQP+Talgsn1LW4tWZEihFiZCPwe7pvfI88RBWCrMwqrT/PuromHMyWNk7z+/AUTXbQBywRj2g9sce9KPKD6dZUBJ+XGhiEnonjoVVZTMLnh7oXPbhdAeaNIsH0fHzhtmlpzc+TLDSbP7LD511f+EqrfWakAQuoXsXXh1ShejU8wrI5gdJvsRjvcU0QwlttwBWHjh7cZqC9H37FygPFZHnX6fvb2h/Kj8BWZIM19ad8ByDKpduAKPc9WsyfC6WMTkqDtOxpG6tWczkZVhsYwMPvj7rYYKaD65ZUKVxjifrKFSw0t6q6+6HVsutErFNIs+Zjbo5oeN0CDmipE0dDyxR+hnelcBDc6beL7hqY8qkWFIAsay6Zr4x2TVgsIQPXmKgGp/9p9R7tboyL1ioLhum7m5z/GQvp9KAIQ7IwZjxblpSIvpzqAKTIHtTzpHgJjiKSo/vfUpQW7kCKpFBjO6PzpwDpfNoxX+18BBCfj0qbuxjooU0jrwZiZ9e/dhtMMBkAaP3GnGfpkVQHcftehK2wCUP0uyyJlfe+BulQLClElcLndwEYvJ4ZCmWoNuMKwGfM+ZTkgi6Qq8FOfmM8bFwLlzJH/I0k6e7K1E6rM0VownJVp1nL49DgonWkgU8YeOdSwNuq9VWX4ek5tloyDNBT2BUKQsXxeuzw9pEy0Epyhn91vzrQcOMv2uMLVU/++FYnK9shBJ6vN0klpHBi/GV8h2GtGLziGWllpHxhN7lq7/p8r0sVQRlsJod/DjY080VeKLDAa/Unr3x6mC2BMG/oCIQvIHdXbDPVs1C4wvo7N8UZ7H/vCOSOLK0h3X9qkjgcaX00mctvjDeeMDxXIANXvtxS4Menu71tm2zKQJao14AxDs+bDH/tCWf4LCJn/ynt9rtsgRUI2TH2XXu/dQ0QEoPollwKIDp+x5FZtRxwZo1oBxrBz6TdnvG801RunRAhOytoNNzvYyKkWU7WE5tixychXwfCW5sjyYz8O7WHlgAwT+KHRMzveej42NloCYwiOEKz22vr0qjUL1WWoBxrDtWufUd5JsCoTwBX7e+97eswSdQCHHBors0vPAzN94sWA6k1TAoQw5ez+3gM6O6DKc/WB63jU2XLJB0rn9gtcYfrke9e6RekiZQIxtNTIhn+u882HtFyUs+bB/TqZqNmimsEYnevtmRJP9dsuHa4wJOJdH2cD9EWBFbltdsslY8MD4PweAXbisvknrFD7Cg3ATzXttXeCH4wu7ldAzOops1uYZaLQO4TgdNuuLf4enxEgJQDVG6UEgDJ2/c4enZCHrBlwub5Fo3uT0uFMTwwsynWODn/8d/PrxqjNGmRgTP3aDd67hwhlgOpNUhJcTsGkJReseEiRaAyM6ejZb98pNqzx10JlIgidMqJFti0anAYThd5xg5Fn/SBVJIGBAd73epqi749mwRT2Zk/vhkLcAFYm8Hu4tWWkDtIlsMDXM2176MU2OId2BgaK08YNb2lmiBJJNA6mY1lv/kEfAaB6C5QKNzp0/PBbeaikEwYwpl7eop3rw6MB1duiRIAoxGtp69p6VIuphoIxoi48GhcHZY+J/xOTsXzookhUjUU1GI1lXHfPi21iqjdEyQAJO3ZfiycsqsVUk2Ea3Xl/tkAMsTKRrl4/v24UqhmmEoypa1V3yMc18XBuFCANWLXvl90orkYpRbNBb82OSIBysOsXCHHAqVlHr9rI0QgkisBo9qbme34/C+kmAdL8NaOPHrNCw/YoR2HbseXLKQkcKPtNfEGU8HD/tevWLFTnRwU0HY96i5/dSIDUtyEEcY+f3zFhUC0mRBG4fcdmI1cmwHubEyhNn/Rb844GKGSieRgedZr9fiMA0g8NV5A2aUQ/01R0/wsJGO5Qe/OGVUFQ1mZ9gZAGTzjQ39QejVXTKDhD/3iTkV6w9swCwtUrXjYaZMNAzi884KzOu56O3u4PZTOsL0jj19w9v8hJT4FcYk2B8VMj2y4ZHwppIgkhVXrfa+ycyUJle3DB17Wst3h9KJQzo79AiJK2H9xzwlIXfYI0A67T+fDQIxlKQPWbL4XoU7MWDMiUo90AHzRepwZ7J6bAWe9ZBBAnXHmwsA7aPRqARjdwujDkWW4+pGNPuOyMmX+Zm6DvCpxgCtdCz3hyErTxV8AVhkx82TLbEA2QVjMMm+y2r5etKoB0SgFXsHrqgf6RqSgODy00eubuPgcTgyBtaVNUmRPjO2NJA5T/qlYwvkmbl9PClJBWewJu9O2N/bKQIoEbnGE7aPGMBCkAVG+Y0pDFpM348DYT3eWoDbnRidczcuCcRxH4dWjS0242yDKFHoxuYv5hXBqkGUlFcIMS3zzdbYtyCdQBRje++nT0jXhYw+9AmHH3g7kJatuqDWA0B9Nb/0xLhzNPughCkuA+u9dAOxR/JRtM4ejSbP8NWKfCAlm039m97UxQ4rPWgDPdWv6+PRjSoFtgUU15zovX5p100Y4iF4ZVu5GnoO1sFCjL9xrezhg16tQqaKlZbR5kcADVm6dUCE762KPZqPSCPDB+aqd2j8aGQdrBBhAC37EfTg80QFEyLYNGz7ze5N4Vf2gvcwix/9qtfbva0NHOIgOMxjPpsefgqnhI84q4MWEz5jTMs0d9sLQQjG7T7ebWh0lwNqkogpM26WVzZ1cUMqk6GMNwUO99l5WQvmsgTln5W888B/SmtRRMYbB78azbBdBaJoGBIdPmLHqSij5VVQNTONZude9VsBjKahvA5RTcftC7o4EcBUm0FoymY9316ZvLQZAmKwUGSgWhY3ceNtFF6UqVp2iYSes507ex4VQkspi0yecWvrXSqb5lexiG4V+g4ThWXXcyxueZdP/lYGI8tJaJzH/thqP1Ci0T9MmqJLp5p59PT2YDqt9kiQBRyqt79wd4VJeWnIU6g0bj8xUKuZyuo+ugZ++or+9q4xFl6ebmZmJpaWXskWlnb6/noMvToTPkckUhTD6fT6NVh/tvGsvo8MUxodAaJoWb7eHvg+saV5fNpln4DlEnds5M5lD9FkuGy0l/Nerp7kytTm0tsjn4Cp5j5pOBg6727D14yMVhS2Yv3b/h42OvlQ+9byReXnMqNjkuJycsLC4uOePU5ds3ch++mjT+xfplD96d23/u3o69B4YNnf9H0wb1BuWZWNs6sviFeqUIqn9YJcDonfuPmBIK6XYrau+ZMPle066ZDKRMKgamcMxqv+XZbSWcoXUuO8z9t6bXjXna6r5iND7LMWrg7va9tgz/ffmUy3Hb0pPi85XsaIGQIxJLy3QouTKpRCwqhCMUCqLZyvygpJBtl9dOfDzr5Z6+DS4cG9D1uKU+S6FtgwgxhV3thiNeQdoouEiXsMOm7e3V0RC1wakAGDP1ifmmZ94pUE58LZqp5j6i0SAPHW07LUXw+XJdW6fDTS8u/Tg5Iy1eIuMSBCBDKoAgCpUMuyAhfVvyyrt/Du133EOPxdCmewdc7jro2oY1+bCGTIBUGTtzblsLfW39gFGAvLP5XzMvB0P6fZAGRyxtbGagVZZmoSNDd7R+4mK+efbn8Vd8C6LF6s3SATKJICgtd8WRB/NP7+6USWfStEJaGN3o6qYXIdCGTAIlQRkz55l7aJOCphA8Ncv84pnEeCkBqH5xJQBEfu737l/3oGtRsJHJs6ndvcWfd6fcjvOPEUlkBNCQsAiZVCwsCMud9uvR/rstHXXgPwEYzovsN3xcmFBTIqogAEgLboy+OcAYDWn7KTRdk8ObzqwKksBpkcj8vX//pY62uDYYjcmzdWv/9N6ExG2Upk2AGL+MlZcOtOpg4qqroEEdlsXkBk6t369IF8C5AYuS6YMjNvbebYgKvsoE4+ubLfjoK4TUW+WKg8cN6WCoFa4NhiscLK8+HTlue3A0HAa7jBMQ+vDI/ps9XDrrwZzTh/P18tqOSgyQEIBqkZUMIcl/uLS1ZyoKv5YO7uDS99maIFj7bnL9pj3/ZKINCWk43TB7y373nBiqRVYCBCfY1+tz7y6u8H5WCy2T4/1eXlFCWvVVaOUJQlbu7W+JqvxKQWFn0Wr2VD9Ye6SJc2Ys6TlQH/bORrjCPm9X01GTfQNEgGqRlQoQ+/uMv9fcOZMFqaeIKVy7Ni10c+Cw50oAcHxmzT9hyYNWHVMHprD3bPvXulAor38LEfuvXXoriwfnxv8GTW5v+WnzsyuroyH1EL+HkChPzXje2MwI0uQcvl5kk3cPU4Swxky4Qd77e3fIpCNlUgwMp1t3fz4lQQJn517AFa2+1NcN5qg5zrS3vH7tnldYAKzKuES4woRT4/5qNchETw6f34jpZrX+PRHeNBOQf3bHrTw9+ARHHRjfwaT9po9rAuA0J4Es/9SbBVch1v+4PPVJ+wNj1qZB20G7DIDIf/XZMcPqW7iyYLssptFtXRoOnxgCa9NGGTtn2j9tTOmQeomah+ZgeWLLqIfBcA6GBrKY8PWvP2XpUi2mUsAVdp5tZ8/IyAdUS6pqCHMmj2qy28YBsmPBdO3YcoQ7tNn0XKXPmJ3dTXS1KMtJjTBdd/fdfyUB0u8pNzpnxew2WbpwWpEYX3/Q/RfhAZBm4VQQbnSC17kGTgZMqBJPcIeO1/bdDoJ0fwYG5t/4vY+zPmoGWkvhmNdg9pQQSCdCS5VhU1+2coGzayvGimx60AfiLseVgohPfNPEIhUigWNMg66bxpxSQtk0p2hkuf/EJe2epMJ+tahecIVuZNu5R5KVUEa2gEyZ/PhQQ2cbCEsxMYbtgAUHvf3hjC5VCQBkSYl3b161hifvhKb75MLFF9ui4cwzAdz8xDdH3xprSQq2WsB5nd9eXB8Oaf9nQpQybU7P2jCW7THtLBZe8mVDqYDJQcaOO3Iz2xGaOCzfIav/oSlJcNrOgYGi4LXn+nbNrKm9pHG6Ubenv3vHU/0aSgZIQiYtbX5cHzpNjzOMBvU+czYB1lsFsijU5N77mgyE5t6M5uDU9EEirF5OoDR0yo6WHQ2g0b0ahO/QeVfv3yaHCOB8N5KUlef6QOja8B1Mm5+5nUSFHacM1niHMWnw2We9siDJ6MTlHoU2dCycfYYDgTQm5/GcfgMNapplQmMZ77r/zmu1QAaofgclACQBp95sHuBBp8H1WjCGVbO7YdS4g9yEhbtPCin4w5LYg+2M4Sg24et2bvfPxBBI81+BNCD2yLxPT3jQGdLqhOZ4/Jdn3sFCOIMkgdy09YsH2MBiWX8DY1n8kxtN0TcRJP8hx+3GUpJJSwTdmH2cAcX5oOl53rp3SkyFFMoBkOSHf9zirF9zvBy+XmS/9+7pkCr3QKHP3Q+fnsCWSII7flpfQFnUjwhtVFQ1cNydmj8PZEHLPhnAcNuJM2zrbH6XqwTUCOJnAElCxMjGHe2pFpNmYOp71h+6PjlGBqiWe0lw8zPGPlqUlQqZkSjPbDozgcKL34ymX2Zgy7sXULQAIEuYsNkSAmWC4XSPAYtH5xYAiiTxEwhh6PhD/U3ttHoSQnnAaPSo7hdfhMfAaZEAcdKkAxesIGu2qOPWdvQNqjybImSr6sm/LkVxM4CyVRDRsRsv2MmpfRdFYAr94zfHpkRD2hoJcLeN/dA+ig6ZWU02cluz+euTBZDmeQPh5ZOnLeEKW9H0LDY9jhNSeW3AzW1O/7Yc13cUFh4T7FOff3GCoHkYrjB0brEsGdZEY1lM+os93aBwCNVDoTLP6rF4q3cCnFErQMRfOdenqyFUOfKYg9lzr3xqFS9320Kd/1ZkdIXSHneygonzXXjUKxMaz+jt5v25sGYby5K279t8NQqOiy+yKVQkFm0vblgbDGlZlDTg8rItdQyhcjFx/RMvBFQLhnuqBeP7RQ3wptikBEFnGlpD4OcwbHYt3ncFWmWSMOm3pmaG1U+ZYHxdy8M7X/hGA6pFXCJAxg5bd7GbHdViKg7d5WUG1ZIJDEyYV7zjk2Iom+olEX5jW+tBcFXPdzRbsD4jANL6BWmC+/DTealwtqirLBjf4cnhnR9vB4mgzBQEUqXv8qGHrXVhci5xlvndYOrzbkDCZtVGLVGjo6leVSDgrN2TRb0ryudZdbu5bE0AlJY2kOaHr//QLs9RAYHWJQm+Q+djCx6shbRqBMiifV8Ma2thT/nG/A5aao/RUMyICz7wQ8snmud0CL4IXPb2IRaUu6MYn+fWY8hdXzhTG4A4yfvgxU9O+sxqokxw1zq/jHzlB2n/cyBMm/K+l5M9TBmCco+mYwpg0LugYKjjj8uj1fWmemFfEIQPr019xQmNZ9l/yboQ6g3IEhEHbz+4qYdltWhmwrTPajDbK51DAKqlWhLc6LgV9/o6u8LkUCqsGt1N13jlXIkEnTMsSTAOzZRUr+wLRLz7NQvK6xsK3fe8fhsnp0PZnhsQsoLczze7mzjAtMUrAcbUy/o0bHk4nLMUgCQ+fN2cXs4eMGWS8B3bH/GDwIEogjs6q0TBYKnrYbCZigh62Nia8i8uzjDs2O+3lcFwNoCVCf0itj6ta6LVAVicYfN2/t3keCin7QGZcPWLR/2dDGBKC8Rt6y9bDYu4uOG1SzmlWPYaQPXq/g9IetHQkWrDpBYu13e+9jmDLQNUy6MkCEHI5I19d9tA2MSrnPD1avf5fS0UTn8JiLY9nts/Eq4hIjpdPybAI66EoaV+xviN4wHVy/sGN3iHBQSRLrlH3T3rw2CNCMasnvK+l6eDduoSnGdaf9iKNDjrf7nR4TOGN7BwhCm0zXdcNCYBEtemiIDZqWUs9lAC1ev7D+m2PyMp91Exmk6n0wemhwmg3PBAFp1x5MNhbRwMirOMrm9ZdjlaBqgWYgkUDaQY3sZTF6YLd5pr64N+MFz/fkPyuVNZp9P4HkRhRsBZ28qI8pAJxkyNbL3UC9K7SiBV3ninjYNBGaYt9vnA6ToCgr32fTsrHcq33nfQrTavoLjURoX4S9bfaxKGpYqJgtnOgOOW6f/kr2hKfWNTjJ8a2fDBNimk42ql/g/vtYV6XO0PYDzLT0umpcFZOClNmTi7l4sd5dvuOzBd80KLhGrBFEO2fvf3Xy/c5dlTlbIXrI0v1YsshmT1HDPKU9Zq4YzMOr3PrYW0AWyhOf7i9QUPmD6iZYLrRJ04evByPpTSBOy1I5tlu8KkSGo5thkHW22SdKxRMTvYfp8s5h+VEiXeUOoT6ItBpLx8Qr31jjMMBzx9d8UfyvyHQG789s9Pd2cyfv47IEBh69zs3Q04FUkgJ2Xixa4OVIvoezCHXWdCYUuVFD2uXTxO8uRKIPC7WNzHwUzeQOWSFd1TeJ12heBKjq9vseWjTz6kXXmU3i97msKUSlUiGM6XW7bZmlsghVGKQCZYtbQ+XE0c5LWHZ0D3/RJOsFSR0a7QQvH5NC5uGdM8YwHVS1WBCNnRBYIvLsY3MFs4I47KznelQ4gTps2rawRH3+1SwGg8o4Ftnj9Og3IgIpD6e5/r3RWqOSFMj+Hb4JMVZ4ybyjp5e4vapnAzzIo7htiuZED1YlURh++Jot7LqUXTtTzx9HOsUAaoFsiPAFlB7qg+zo7wGiY0lvWAZgde+FDX/bMMgEy5asOCAdb0n/8OjYHpDtgfBJ/5JvVepBJKYt3J+LJMzhxXlX8wNAhQvNof4G67ZwrDW8ZZURdeLw+PIQDVEvkRwEkbP9fc0gECZ7Ak+PpdGo1YkQNRtsF3cNlx6z68tYXgc/UfPM/96VTLpQTAKnMVF0HRwOf//2z1FhUlQ58DR2FfMYiM824QeDm1MFbUnb+n5sDZEp2z5sG1rrZyqE7EFzBFqtudQ+NzomEMNQFZzLbxw/u78WC6BMMzX+eKAdWiKYH4ozrFVyqvt/3bSy10cVSMYuvHEL7wQOGrtjwIrHeMaR+56ND4MBivhglhyMS9PT31qb8/Lw6N59Zj08HLATBla/5LodDc3zfKdoVJaLj+4FMQ7q8ilhoWXyqjZTr49x8StzuoHNGsG1D+DsH6OjC8b0xuV/v0sOlpEE7GBtL8U3fP9zBhQWWY0BwHbX6TmARlW7oiU25fn0GGMAWs+Qbt98FTDlcM7lqn4rabon4u+O6fS856Fv/n/FunQCnPohSx92ZbGLKHihJg2wz3CqJaHiUhKVgz+v5xmMpy6J0XzZmSBJ/eLYJgJ8/464I1TIqkFj37fQZcua3/Alb3Lx6KU3TfXnyp3NEqF8W6N6E8JoHc/P27YIiYFGpbe4vev+dC2QAWBE993t0Dgvb9RWA0vePX3iQGyADVYikBrsB3xvP+TvYwNX1hevziDmkCXyARvKB4K1emuZfq1KKCocUn0mI2j5IAFYv9KdGr+phAYZjQGEYDnp65HSQDVIvkB2Txtx80itT5+Y9QP5jc9eqHFf4w9o8CXFHS2r23IvWo70z+Hxhv0O/+8KWS/J+kkcUTWmmeV35Ueomfin/sMdf3kGXQ/0vCwUEwhF+LEiWMru6cEQphN2lCVHDkpgsMya9yq4bvbrAhVCSFqkSZ+65FbX0Yvkv/wnf6x49quZSO4LlK3kinGSW8WenKDiretd0/cKYAFLJ6zhMYwq+FClfHssewCSEwOrZBXnPq2VB+TPScN6/3FQKqhVECkhSvjdcG2MCU21qrlm77XGgPXWCgeIJtcWkxn8WU9O9JL2Wq/K7MydAaWkLvNj+M36AEjK/n2fPR3VNK6L67RP7tUS0jdag8KTRe1IW5UwogvAEGEn/vB70HucLU26hQXrV/9QdUi6YMvMyKr5f/thS9pzyoWhFplqjZpVYAwL70BI6EIoyv28l82ItwNmx6lxClrf8j2566w4Lxai8ckwNdLVpRbyNO+pHBXVg0qCySWnTnaQGAatmUgf81laY4jltL+YASwQtVvAbezRLtFygA0bOc4dAltWrhTNe3hx4GQZfICWIePq+TStl5sX87Z3sAhL4fkKS92NTdilKD7Uf4xnO2QXpv8xXh0eI3M7Xk/ZJK+3dBeksV31r3ZbwmF1sxpL4LsmApN6HpmrT/ayp09+cE+/LSO4aUaFyaXl7DezeEVEvgR4iYsHFLejrpwXT/W3TR1fVXWFvvfwGw96lUKOHZU0tfMHeNi4ou6bQDqv6MxSHSZ3RwgGVD0FI9G+6dCFsHWCBY8651Jx3NOzk01wFHx8SpphxAgDTEa2kjC3tYvkHf0L36CuKTVohweefiK8bsHrDL+g/2q/z7uIc7hNvhX7hrmxto7nX/DJ5n861rC2SAaqkUQxx3pvdATStcTGHb488r8fCFSSTK8M9NakNXO43bXgylWjRlE/NApdtiLeM5Zes+9jvV0KvJdBjzOf9FsDwLjuTXInCF0+blOZC1RpIWTNnjrKvRCCOeatH48yno5lIQEvaNUfevW+tAp0mcjigB1dIpmxnWKmvmjfyZOx/TQiVKizlN0chaK4t0ZQtIMsSLYFl2X7A8TiADVIvlP4A0f+XeO8YarO/DHMz+OLINtvwIIFPGfpzf3ZgCb+8n0D9FQP25LpRdjrOK+uUtyAc/+69WXVD5j2iet2EOBwVyg5/awxIwqVWLr+vW9vn4dA4BqJbLd0TfftDCQldTQsJ1zDZNCILualwQNu7AHRP4ZnxgmUdDIdckgQWvVT7X9Kcp4Kf/lWRSd5XfSru6Sv2LrQIg6fcoiExW3CGy5bmzcJVRiEPGLnDW1cznmOaYPc89nguo/s3F4Crjpv3dM1IXgkoCFXh1xkPYZ6w4klFGxRft2Ltca5Yk7lK5PeR39YLqYPyANKK/xr65PweTG3R9OvpyAEQyA9J4r0cD9DVxK4w7Xh8WEQRVuOhrk7SGLq5QdRL4As1uYQSUrdK+RzRld7Gdg6U2jSvffymZfEzFnFFcXQu1jxMovXHTEiLDhMazentxbJwAUC2X/+Cyvf/sroEME4zu/GG7EiZNAoAkKeJ9Qwt9mOp//w9uPMwf7pNVCDf3bXF9wGobW97/Vnalrkp6ieICpB0HvkH478+CaacUKpNPe7dDFTER+oyoZ6duGeGsLhcnCaE6HZKEySObmrnCkhn9PbSB+2C/uSk8WqdOF0+Cx529yp/CLPO6ruJXM3YGA/WtlgyUjy3gCs2nOm8etT2farF8h+jy+3r66rXdcD2X+RNgGlcAhKHuI69dt2FAVm7zBbnnRNiuuX4EJPVUybaw+60iOczSGZkqotd/B3OqWhFSr0FQfXlwHY8Oi5clxkMTMgGC7e/r2apTRphulwVT/eHxbricAu93zY670iFyfv+DNzgRHlGVStBNFU1C25NQoQdIRtiq/HCTZdCciVIgghpBlPr6pc2a8dtN4+LYMkC1aL4CBLdnH7NTo+2miBy8AqZb4OjErS0H2kMYIylC/6gfRKIqDdlnlf7yeJfwCi47rJXK54sWmQthkWdxQk7CNROpFs7yePthRTwsHx/Aubxkt9raNOIsp80vkqA5HtJg95NNBxnBMIetBJiWG8qsYIEE7qoslRq+gSsrupu5V+qq6BK8WxmFgJAgmuUMR3e1f6HpOd0aPiUBkgMGYs7OM1NTM0uM53l/ZggsP5ST/upd766uOJwWSS1m3kh4+3d8R8rO4pc3WOrWihsUglkeKj+ftQi6IvofYF+qDdvmoem5NB21CpbupspJm7LV08FE0anpWEhUJpAoT+1ragFHA+CScOifC4ekfkLMfZUWJXp9KhMyFZ2JUhGAvA/0eXmBMh/VBDsI4Dmf90qCpP1ATMTi2nQ1nDHcsPWZEChaLwIZO3Ff32wDCMedfgWzPpqsFZokf7+eSi/XhpXrq5j/WaUpbC37vyBsZaMCcbmJPmxfI1yn8+ElK+GolCViptw0Jb97NN+w/6/JMORtAmnB9geD60JYtfcNzOpdOQpYIEB6ScUxwTtVNlU1erhKjwIs9QysAy3+g4i/ZwmbLsGYjseb73gIRS8TUPCijxXZjRlw2wsjT8HQu4cQxH7c8zYKnsYTqmD0w2dhULk/h5huqrJ2y1GVNqbyd6SqPMxwmBZEi2Qr68C3lZiu2YOXxQphuMzxu9TGg1wvEEut+zIWAk1CcBIi9n6ygc/F/RfMoGGcVjg3gWB1HRXj1W5J5YOlILixyogIzHUmBDvmZ3DXtlTVgRCA6Xd/PikNgqxy6erPPVR7YlXtl7F2P/KOofyHAXFCxMZGHQ0gTSQpAnc8kEa1mMpJ9CGVe3T6vCoN+7rRX/W1XC82txxSiLCdqkN9IICf+qT+7IkhHKrPHBCGvaxLYnoJxsg6OiWa8l8lZfuMvnndRoM9niqO/mD4o41fIcZbFV86o0XVKiLEk1U/X6yWwSQtVp0A5X6VLD0o4OsPajxye5CY4mNHiLbPdSbv260wbjaO+jwBUei0Rz2s4Osj8D3WS+GPNf6fNV2Lq2Rmi4AqPlHy3lFFHKlHSVmquhGvsIFwV2FywwF/bLgsoFo6Ma+GPiErnsT36D/Lj2LlyI3OWbGjpWcqlMU238AMRxVQK6byw15Q3Gxl1vWp8itOuMkrLhDcCvLmJf9HtFE1xw4KaCzr7kPv3i6gNv4K4qde60RST1wD840UN3KVscMmzG7pbMuA2bephbm+jAGUyqkCeKmMnogaW/UNC2JV52zReqSDqq9V/cTvhLL+AmPqPek+5EyiP6UlTdyEI72syLjpwPgd/oml9HaTKwp+9b6fpx3cvk2hTbIP/pYCgYArlUjEQr9jxfeGw59kxHiI1f1VPl/MXRMSYjhiqYwLt3kSfBpKXVJ4+nSirm6+myOSAeqEI0sa9cmRhMPH8Jz3kEPh7wjkrl73d6/jrpDVXv0I7xeYmteoAGRiYQw7oMAv+crEdePGjh5a3L1RXA8HZPwZ7ngXlS2nqN1kya93p3o9vBGXFhzPFnBEEsjaAn+BO66LBrdKhaDxjOsNOeNLZYYBN/n99aqnhNLztqygcmZ2jO+44a2PF7o2cJskhW/cPIQ6KZVGoQ0SE5wTe+Xx/g9Pm7S+062jmyFPXojKEFSsgxdJf1A648f0UYzGZNDpuvrWTtc/NWy8ef7wz0fcr8T6CaRcApD0Z6sOZ7yexrZKBcH4DiZ35q3PoDDjTxixybOqZhvTpPH0JMpsU4KT4vX+dKQeH+oYyRcwo1eQmfCAkAnCpv5j7mKZ6ciT83GsdGVscJC0vmcxS8vKQsAwnEZjylmptpZd2p5/sypJIiMAWX+6akTXhzfxEaPpdm6/d3KwiKotRiTNaBxVxWocg9Nv4qk7IiLf/W2sFPDrkUIcdkI160aS9nDU4KvGOuUa5uE4h8Sr/qCL5TqSWKFaobH0I83Pj871gyIrNsKtiltArWCKzv2eraYs/Cr1e1O/SlmvNMfDI7dRdUQA23t/s2xbiEYzlsXACIrE9CNcZeKyo2/dHOXldAr5/VeTeN3IzTCtgO7HmDp2ThfmRyQA8lZQSfJbwp1pIDcc9MvocIrClkCSfLK7XuWDDDS7XXNyqWn5C6T+uRv+2GUDfbD1/7CWQFG7Jg3IWbHkU6RjRZrd4u1vAzLXQEx0rqAdiTH1TD4Nm5RDbWkGWGH086VSCSaPuvDhRRxFUhJ6P+/qUFkHAUsd9HqlkoqFA1l08sw9uwyh/kx8DxYZASiQUzG4gpwVBxrV8XBgVuiF0zpNJfkOW/im4nNmMEVq5wH3f10bQGHagV9b2EP7tRRRbZZ6+VFTmRMdMcSCVTkJYXSLP1ZQ0k+fKwyZeOiCDUNrNEktxi9UV5tI2dv/PBalU3GReZwk3e6Mf1mpAjBMYW/aeFYCZZkH4g3QO9MY396p31bvYCpiJoRyXbPKZaphis4tZoVIgeaXzAmZMrtVRwN4A+o/YrSCyqArkBXcOHBCt1Ka13GrGvLqAnpWego8P6/pNKqa9YVD7uEUgdNtOrS4582WaN4ykaZtvVCpXq801x7nwjUfKAHc+Nxfr+02hDtHXpWrVA63FJ46X8ewknPXU7eopZLZvWvlZUnTc+rjQ0nZiaCeNmw6TG7bbcGbWDYBNCweIM597VkJww3TNZu7XfMF89z82PUXj3lAb2kWB19MVcq8pODK3IF2lb4vp13zVcuyog9WqccFzfXORwqGCIFhWrLv5B5vDz321Xz8NWB6Y6OKOwt8t97TNJ5RIs1Pnnm+h4kDE/r4V3F0Z1LyFZUlvPowoCpT12kDM9TjmBHBLavmn+Kpxx95RwO1LK50lpPaMEx9YExeVv254zICNKxuuaGfT1S8GEf3xLlQzQZ3gDQmZ/rz+nmwTtsrg6xTGpXUF2kJYjf0NHWs0mU5ZjpBXSoQ+NavatBcoe/Sd3maRrPXrqjO4IAXhb7TonkvwtiaDSsJL7+uXdGkV5rJH6803MBJ4jdpdkNTPW2Ktn7jhIbLbwhO2vL5ZlWe3mHwXH2NmqTeWVW+gMPphldfX1ZqzuK7DHXCqwr81Kz6w2ZoNgGWUI5v7VqxZeK6h3/VaKcJIjrj8ezGg2y15/73O7AW8RoUVeExDX1w2rDqbj1jc7oaF0nsUJ1KXinR0mv/ESsEalzn92RkkbBkjVF0M9zg0ZkbmuxmIkvZUadi4Qe55WIvAdDYArkBsS8O9TzuWpEkTYjA52sy1VUS9tyIjJsGnebqbYqQP5ekFiCO/c5qKP7v60TOijUFLrd/cmLIs7UFGvMfgGzS5syKnFLM8djnNI0tTyZMmHCoXZaedtTtlQCuyUl0CW+uOpARTJK3WwPUulCwzYwkZ1XuNsdXI3k7yZHkLFhzYHwd6+tbZgQLNOYF+j3oVpGcV7nT/FyNtacFIesOnM5L1bZbm+/AP2hKlUhX/2Za6eyvYvAGpwF1r3byMbKmRDINb3lpYOTBKW2KlXyDxrKqN2SdxrKtJavOW1XgtRosupSgITUniptxoOdAV7n2KpLCT8MWtkZkxU0bWafSFVXFofVaDdS+XvG6gaQstgimTTN3trqXHGFD2no1CV/Preefk/w1lHDtP/aE6mSBMpZmcT5ZMzlXgjSv97ciSToelIE10UTYlUh4mc0jS+OyJmrgUwG2LSRpuUXwbc3v+qt3waN4P18GlGCpXXq/WZOvkTQTcfKQ8l/OpbZdrok1ARknceMtYy3JMCyL/uo3LwFnZWNX8qLS/HNqr4kg/KcMJ88qqfWlyL7VKnW6kpLm2piJ8BVMp+Nrd3+NVOawZ9Urr8qldfpwWf0LImQFDzc272in1a7N/xkQqm5pgYBlpmQFHr6wO1ndS04bFlXJmvTS4eftV+PFYkieFu9FXNe03fOpaSL1iecb4u33jcu5Jt6dWWrvnU6Ig8++W3jdg67FL+8/LMLVLK2AyaczyZUU/WkwUOuaRUcN1PBuMf0+k9SVZkJMcSB/wZoDU9gdb/SnV4FU3ZYJ139Eh/JlpCuMd65S82ICpf43Di7oZkTqd5ZCbNYCdUpLljjEjfSMG/0das1J50aoQ5MUouj8skpT0ksn5oD2+jdf4TtmP112OR+oRz7/Il3XUr9c+1G367MU9S5FEpDxcX7dzOrg2nxF55IaA17iNUOj1NCXEvMYo8bPF/DpQP6S/w/r+ky1REziumr9hsTkht3OT09Tc5YJN2OOZ3nm22GGrb3UmVMCZOw1s/Yc7qSnxYkkquBH1XbhRaT9HUlOJokqtOxtQF2rBsoFapx2R3P9K538w0Is11ffkjUFxnQw7f98ahqHAKQL6F+Acmyb8lwBKCIfxalRqRGchAlzP7lpZdVe6RxLAeqRVsG6t2q7oJQvUVs6jHAdGQU4paNzYSXpypvdrHrsSaa+Z69z2/PVWTIsTRyWx/j5Sni73qjz9j5/1eemXVLVL1DNYjxFLflBnNtNXdVou5lMUZOLAyb3ULPJSes0muS7CjC5k3qXrDkwx6vzZyWr8dqcSFj2thzDDA1uuavtYyVTJs/8cMKapeUpaT/COK+OO6+wmxWqnKowWFf19FAjMuqoP6DOah5L6qKFLarLJUChw+3gduGfCaFq60wPBBFNjX96iHG3PzLUlL1EiNJXLGkQqXU90soBfp30TBwQv66rrpolxeqrBGSvuxDfp+Wwfqu++AHLScykl96w1sCaNQWusHdpdC+3QF2jQGRxB7r8NLWUcf1kgHqUGSHyfdYi0r766P7vcRxN8h2OyPcpKa0EykZvjBqaH8XMMVD7woug2R6KJU3qKUOrR6TkG5jCwGzwizQ1RUwI/9Htf5aEg+k3PKKe2whpypQ57Yy1ZdpeRcEXpZEpLJHvHk+NbG3Tj6SH2KX7jTRldspNdviR890DZyw1tGaNgbGe9NwboR67AMRMbJb5k79P67QpVy0RRJHPs/vOrtXQt/k/T6aRJyuQP66No2a6QDEOk91rgMipo7nvO258M5QUXRjdSI2X1xSByQ27Dr4UrpbG9NKM57V/cpgZu/anq+FPcwU+Oz4ZaW1vo3LA6EVWMg4Q3rhjr7F1KxonkbTu/68+va9GPQXaoNEkNDLhzqgGOSU/gjOM2o3IjVZDbgcIOnNHr8zjzDfsu0IN+WlE/tm/6thXY0VS+AmwOUuOrEDASUtNSsrxHiBn4V9RvtdwIQumc7PqXYiTFlXTzYnrdRy8Uh03ssKVT6PK/GYw8uZeJt+/IZLGHTXTkMVOGbRbAWTIinNkl2a7LmCG7iS+8aQl5cg3IBm+2ZEq3jlK/9LWRiU/BedlNVqmhsJ17ur3HcvcqLoDfiU/JVkW9PiP2rxqqvb/w/BM1Y+kaNXOinS7IwXa9StkvXIQNNyagmiYovM9f1CFZcsiTKrx7uS7NhiVQ76Pkz/mU1l+BmbQYAbpIV9ugNfNclX/aDk0J+8qio7IP3i9SgMyK4fidChJ7zzodxtK3jOWeTSn8j8BZLSt3hZzavtzIaSnqwlWPrUs46unMD2aS3Z+GhE05Y+B6s61ggKmeRiogqCA4NVRD0ouy+0Hh1Zl4f/+gPitThR93TH7HpMqm0jPTV+s1X1Kfg6u323OlXySdYkkbq9ZGbdevA4vw0hOtQL5K4YMTK3G9uN3yDdVYcotCFh2XD0lwD8F0z9AQt4/4OzLo+7rzs97XLk+HSB4eAXnzWkfNMdBO6fGk3uyCeX6dmXExRw/nUkiV3kRooevu1S/mptSYJxTVlZQ0vBWutQt3PXvqk94Uy4vfyNydaDXJw5UYtnsv6tdcemP4KzaC6YGkBswkT38xbr0g23TbAq50+OBIHb4AJ2a4N18xfpuJUOvYGxXKhO3MY+zVf6EzDhO4Q8ogn59TSWkv8yyRmxPZt7NKf6k6hJuxlyLUv1xPOv8ZXILgIRrRtRzrSk2SSF4R6/KyI9In12+Dndqg3a4qheGIfUoL2LhR86paFIUccOpeodcv4Gx8haOSyJTlxB+566XFizB6HU2hpDq33DDfj1sSPkO0ySMDmGVEJN3Wwqdm6/oNA+q0qvmnIMgdknTu1/BSWGhbatneemPYIy8Le5sEo83yB9Tv7R3jum1u0tKmtW/+N9tXbM0SaEheeJVRaUUMLoTBFWOrBZV6Xglm/kECj+B6TS2AtFXsLpX9Su9KRWW89zbnPIL56fCk0QstCnF48Btm6+IIe0vFVpAQvfBT2qK0v8XVgefCoXKxclDraCwsfUOVb7vlvTGAEheNJ41N6e8ERMQcq0GhFz/hWbQ/lwciZnNwPdvz1JavdMsh9yoeiD/P8TJf3eoQSHXb/BPJIPyvw7RRHNYkrYNVlS2vQQR2wsSTVJ0s90qsXwhAcJ/PuV+pUZRWPda7k+iixO87FhqyeebX3s2KalK/wfE321rCMX3VsNgFrHl1f3cnIsQWdhu0yuXeiBdcwEmNxaPfFEe+XPXtKlhuxOTuw1ZS2JL3Bj3VoYleji4w4nRZDaIFpz9I0sTjfngg19/Vfl0P/d2S5gsbP7hU5V50YRPS1gMq6/wO68rh33l05qijEDqwBjd7oWQd4sjCx9a8qg3mmHr6SQ2O5bFLa1T/Wv4SobpUp5Gh0TOy7LrtDWO/Orqitu/IPcTdBPkU5vF/sRVF3gNhCDWrXGsm06MARV+xaWRcs65RGOB2XnzWRJ7lcRMaKzeWSgwwzce/tO8V9GEq3qwRZIYTeMq/KJDTsNlk3yB7jy2rGIykLTgSQ3zbr7C6jo7h7x4aPyLO/YlbWG50zwf8tq6gvSTHSAKA2gc+0VrytzLwlNN7CC02XQbVvRrEj8EyteM2R4qtR0gUI6pA50hpSH0e8yIBxV8xaUiyG2cWZIqYe0+mUbaVRER497cA8KjojEwudmooFLdUmnauW5QxpEwvREVyweQPDOmes0lg7m2zJWBElYMhKuGGsPlWGoQhulf5bzgKgfinPmdSjjkmF6PZfGk3RRJt93bDaHdq0kwxz3hpchT9LA1tOUERusqco0DbrvA+kNqybMjSmhFSASP7lDj4q3/gdt/mhVfqSNdAtz82R1L8BPxzFbjOWT9DcBe0du6xmr+b+h2XRb6o8tY6NvscYK3FRTuklh+2xSENILSuPoKzbJ3cnEvE3BCzrQrz+Ts6gu/0+vEKp/vb8ie1S3hlNOifiFvpLPM96UzBf3AYAPTP/bSR8XUE15eYgGvIikE61fu8Z9AORTuJC95tzHftfyRpeT+0z21RiuSosbRDe5KAVnnfOyiEoJO/E57bpMV2wWCaX1toMl/pBJM4WH2x8xk/2iOWCIRCfN9z/Qwgl0w9CZ+oHyvOW0uxDbJF/DU7vdWJQTkxwf7us/umeUIu+w1AH/gMD+yYqLcSc1LaH/EtJgbTtpfSPnteinZ+TUPTK6fdbX5/AN//v3XlkWe2tB43/ZR+VIVU+ZqZqJnleDbu13tf+vCIFNbFh9tySJce0VUvtpK5aDf+KOEIX3y7NmhZLVsk2y/CWlcnypwGp/JpOHasZcxg9nl2GvAf7AWaJIiMFxLBK8ZGLs3ppB00omwYSYl/IHrIxPIuiWKufsJgu4ViMpC6/jw5y85/3MmtJc3iDLArJs/JGnqPEhaWkLvPFa9DaXnQVQMbsKSgVpgxyNKhW/x0xZC4k0/mz+NgBRd5w0h5Jx0EDPrQgnPP72ehOGrX+DcbmGjeQEhSIS/yKfszSDYWnJRKAJ+aK5bVpFz0gO5k5r++Hy95lMkgJzn+y+/ClPBK6ISKFqnlKVLuOM7I02itdAvjCWr2m7NvB9qdjHXwd6ApMf7Ds+qqSUO1QfmgpzS94NkrRsKZGovfIul6SSd9dCNRqoV1jSreZVqVlEC3LMt9dFG03o6zy41YxHk/FLjU5m1GdxmD1keTtCsLNVyTqbp3kr0Si+R+NHONbjIodqAZU4orbY54DVyYLUaes91JB326OlmqrV2itr3yLJ5kg9Y18SuMtUOrE4uKPEFc+6aIKtTq+Hv+jWanOtajlc91XxXRvbvCaQ8OzDwVZ+a2j2tmsE/FgtKeL+yF1noql+7oXk+2kZOart0ez87lYezrr8pIOXZgdwx5pSIB0E6vDYlNSj3PoEqWbQc3OPaWpLaAPiqps5jvO5jyBmnRQSczKZGPgiywVjzfvR6o3vW8EY01QBM79PdCoweK4vVB6yKe7uYg/mLEvrEVALutp2WFAkIQTqGW/xB8fcbM6rEdp4IrYKR/c9qcjyclHeRxY1UzL7teHIm80lz+6o6Twjtxf5e8X7X3EmmVC8JUXVoVgu3k1MeXPAxu/h9Labfago5jxY/XoSugqsR9ge+3xfc8OMopF4NwF3brPjpTIRyEb/uevHSXcy198qyOqSXGxB9riuK71cn9Gd9F6BLboJebnUASz1xiZz5ecrJF+yLP9pmSyIpxXzSlKFZ1EgHoSaMl33rbkHk9EAWZ7UAYzmPTANkHPiYVQ2Kt63BrF8nk/HgQFFGY1QVXL3gd/82Tz14CcpyrSYwnwxbQ0r/I06yShsAWqd/csh4cGCMd31HiqSDUBOMfjmg6N3Gz6u58xarG7jNwsmkBEfFaQujij1ZXvteGhkPDlRO6o7SDqoZmP37ots96T43FHKtLmCODWeQEneVFmzqVOzJdLN9fmQ8ODB+XB0oBz8iqkLXy4GB3BxPFHKtPvDaHyQlvZ2QLPEs9mBWhzNJZDw4MHgZ2nDVD95zWWDKNapXgSAReoeR5HRlJFTau+p0W05OCU76RpTrWv2gWYxx36JP9SoQJKIYOJycriLEqK7FHqx77DE5k0TDnntQJBuEGuHbG6DGeNUKWqehPqSceOLM1WIhtNR6E/JJebDPAkOqhINAIMpN5tMbpJx4YuynYslGencmkVLNJ/VugipwEAj4cW3iJQYkHHmwolexbCP9/itJmbIj8mpjX9raEQgENDj2nB5DRoI7eNj3+ygaZtBmLSnt7AUTzFFCJAIBP6l37ipJUSWXB3/f/AizbX2DlNw39tirKEMNgYAf3tXPpIzjBHFDv093xTJbJJLSoC3g4yBU8IVAwA/dmZwp5CB9SdZ3j8WMmp4qdepJRSgY3YVBlWwQCES5kVv8k0NGIzWQNKLLd331MOs+saSokuAHnij/AIGAH2annZfJaFEElL/u/l6VRP2SQUrnI793eWgGDgIBPzSPaxGkBDUks459r0qsNieTokrSRz5Bkw0QCPjBHHuuI6Wds+xFu+/SXbHON31JUSWhv7khVYJAaAG6F2YVkHEbzJ3akv6fLsEsF8RJSHhq4OodJkiVIBBaAG/XryFk3AZzIxbq/XfoMZMtYaSokm0vLdGMewRCC2ANOrmNjNtgInex3X8BUsxtcQ4pqiTnPVIlCIQ2wHD5x5eM22Di9lDD/65tsU7zt5GjSmZ3RqoEgdAC5JFzM8g49MSav4z+SybDnmxajVQJAlGDkD/5cIqMuxbCZ67Hd6ok6yI5I0TD/kSqBIHQBhQmmxJJUSXhh6z/6+eMZe0kSZXstUKqBIHQAphRR7eTkeJOJC+J+k6VmJ4PRaoEgahBMD2eXiEj3ZVIHm71Xw0vlvc6jRRVEodUCQKhFfBte5MyVYvw/afzd6ok8q90pEoQiBoEbtdiChmZ84Tv35bfqRKnYemkTBAN+xOpEgRCG6DZ9xtPRhdWIu5PN51/n4o5PSJLlaAbHARCG8BTb40jozc8yHn5RB2qBOWVIBBaAa7bfywpqmT1yTzdf59KmipBifMIhHaA89otJ2MCOQi95+Tw71NJUyXbXlqiymAEQgvAdMzHkDFHD6SNtPhvzAR5qmQEajKAQGgDGOvCR3JUybnaSJUgEDUWjHV4VgAJZx6knxuo999TkSpBIGoWmKL7GXJUyX4XpEoQiJoLre4yclTJuy5qUCWoISMCoSXgZKmSrR3/GxROmioJPYlUCQKhFZClSkJGZatDlaCO8wiEdoDXJSdWEvK7s+O/D8WchpFTGZx2rxNSJQiENoDXJecGx++BOlRJ+kakShAIrYD/9hIpeSV++3br//tQ0lRJyMgspEoQCC0Ao1+4S5Iq6fq9KnlETr+SkP2maGawdoNhtEL4X2EymQqFQl74f4X/39f/iUbDsZ8/BQE9uM6d9RCrEr+tkUiVaC04k6Gjb9Wxrnn/Brd6tm7dqlGjlo2b9F5wdP6WzX2aNm/ZqFGrhg1vfTpmFhll6+igQ1fw8Z8/EwErOK/dEVLK+VI+q6gSUm5wEn63kJexegRsYDif4WBnaBTlltexXuPXW194xyUERAs4HJFIXIREKgOFu0Umk0rEYpGIwxFExyeExvmsXHHp3aMFjc27OQ+MfBJl6CBn0pCtol3gug0ek9JkIGVDBzVYJUkbXBhlrB4BE0y5bqbpgDabTh5c/3jF2VXhCUqBWFbOgdQEVyoWxrAD/MJ8Vj2csnz/0OYnumSmshTITtEacL1+08joovaDKiEn7FrwpiNSJdCD0RiGAw+3/Ovc+Ms5wWwJIOHFyzhB6YnT9j261s7ZxEAHuT5aAM2+1QoyeruqSZUEzTKjl7F6BOVgilTD7EV71nuH+rM5ZAyy/w6ZiB3k5+N+d8SCXlefuOrRkc8DM7h+i4kCEt56kSqx+/epmOdccmIl8bOckSqBGIVDVoOTMzKCSHnZpQOEfonjRu25E2nAQ7kBsILbNZtEjip5Vuc7VWLxPIQcVXJpEFIlMILRFDoeZqf/vrs9Xfg/9s47rqmrDcCEPdx7b2XIugm4rRvU2qFVHLi3te6K4mKFgKMqthXSsslVFGJbAa1oFT9xYt0LB+5RB+5RrPoFByQQctd7chPueX78SU7uPTd5cs573vMeGQnxqHVDktKktNwTI988q7Wpt7O3EpfpNDjkXl1BzsEhM7BKBAOhdHOqVP1Lv4XhIYiHIyUhFfH5K0a8PNKwcmSUBE93DAq59ZlVMCoZqKGSv2BUEvQGq8SgIOSp1hWanoo4kZsGHBhhgjQk/MD43zqudVHi9DaDQZ53+zCQSs6qqaTiViCVXGuHVWI4iMwd3r4YuzAsVs+DEW0kxQQmz+1yNtINj04MA0nraXchzgwmw3eoq6TP7ACQT1v+oE3eOq4eoz/EqV4zauw/HEgzUUQ/KHLmb7jUxssUD074R2IDc/x4SZV8nQWjkogWWCUGACGy3HRkxLJgAxiNlEQRvGz+xg7WciwTnlGpZCWISjQnOL1+Twf59cIqMQAkli0fRdwIkZIQTxQFpDRh3dMuey1TsU54BJFK2j6D2NhTqJLKWCU8QihdKhz8adflwESDmteURpoUuPDQ1OaOZnh0whdgKtGc4LTcD7GxR6USP6wS/iBMPd9O9A2I5nGthgFkUvASn6mbbL1xzgkvAMZKeqippNKPWCVGDuHuWH1/cj4J8hz1hjTg3ICGFS1S8Z4dvQOnkpftrYpaFbf7F2KPIFYJb4jde9dYsyjYwKc1Wom5MfTnDg5ueKajZyQ2P8OoJHNuippKWnwDpRIcduUBuUv1/cuMUSOfSFx+/7NWFnimo08kNkB5JZmHTnsVtSqu/A/EdmO8gsMLcrs/n+cb4LIvM+LW3e9ih0vw6Q95688PA6mkippKzr7DKjFOUqfXPb4shAR5ejwjjQ+YW+uKK86G1Q/yvNv+IInzmeNPo1DJIKwSPSLKXvvd6qx4Y57aaECG5I74u1sfLwmOwqIHbDtf4HiNUckarBKjQ2xecda8oHLjkQ+QCVmHn+30NBPx3bvlHrl1l+dYJRgTE6Vlj3vDMxJBHpthoYjePvans5Z4ooMWufNnQCo5vgerxHiRW756vTge5JkZJLHrJ53NxiMTlMiduw4HqaKmUolzUatYJUYF4V1x9q3yOB7RIM63cx5eHkaH3KvufBiVvHmFRCW4yAByvPd8szyJBHleBg0Z5H/GFo9MUAFW21VTJT0ew6gElz5CDGF2p+6QApDTAYwAMubEsZ5meDkHCWKX2lAq2YNCJbggI1JSpzfwyUkgQZ6VUSALH1EzEh/4iAKVSkYY8Kgk/Tg+vAIZcq+qk26lkSAPyojIP3xqhjdezQFH7FIfSCXH1ReD4VSCj9RChNjj6oTtRlI/ABZFkO+sNlgm0ICNSjSzXbFKDB3JjEm5QvTIe8hY/3pWeDUHFrEVUNg181CKmkraD8QTHANGHHV2g1EWEACDlCWfmY5P+oMEbAVHpRK1IgPtd0CFXbFKwCHM2/63PY4EeUDGi2LJu6qWeJYDB5xK5qqXPkrBKjFURF7VIpYJZfVXJ7LM1dW88MowFKhU8hLHSgwSsUtHv2VCyEejhSLrUF8LPDKBQWxVDyjsqlGQMWUuVonhQSidGs8LIkGeTHlhya4OlnhkAoHYEmoF52UPrBLDRmnXaFCO0VdHA4ZMWL+hPU6ABQBsMTj8pVrFefHpQ1glBgbhVns0zDln5Y3EzVMjsUs4A6eSHUhUMh6rBASl19V34eV+8y9LyPQhNazxPj+OgGW7ZgzEKjFYRC4z/83FIikbRc7NXngLOjfElmhUMh6rxGAQTa+1Okiwma00UWzf2gvXWeMCIpVUwSoxFAjLqqMycbCVEjJ2YbfpOGTCHrFlQxiVZD0+i0AlQThxnhtEdvP76SCPQgAEr9qZzfcDM17EHrXmQXzrUakEZ7tygnD932YcI6GN4kB9HDFhC2HRbTTEmZyIVJKPq6hxweLgqHJc+hkBZNygqvhEP3aI3ZqOQaASqLBrWgSu7coWwqPnN8vxkIQZZNyi2554xzAbxFEznwZDPIKsNZUti1uFGpWk+VXGKmGHKO/LlQkgD0FYkJlrWrjz/fCMEXHU211pEA8g63FlBBOctHFnsUrYoHquQ/Dchh2KdVMjccIaY8RmV/1AVJIxEIVKgndhlbBBZNvtHDYJW8jcZ21wxIQphHe1iHyI3s8YiCJWEryrB1YJYwirJgdCQPpfqMg2d7HAOSbMILyPDoJRicYEB0wlPu3NeOwd40RccUc+CdL9woWM2WKPc18ZAaaSLCQqiX56GquEGYRLne143YY7SScb4zwEJqhUcg1GJRorOGAqGVslisfeMT4I00qv1+H9NhAkrO/igCc59CG8dwKNSta0QKCSmMGvsEoYIPZofDiWBOl6DBmw5iFOMaEN3AQHjUrG7DPnsXeMDe9es5fgCtBgkNFjDmbjgQlNxGYdI2DySjRUArUYHDukOVYJXQjTmUPjQLod8xFp7rTW2CX0EJtdHQeTV/IYjUp2YpXQRLR3A8QWCIwGiWMr4dPKaSGOmukDkjif8Vgjcf44ROUClUpGH3XjsXeMCbduB/CQBAGJl/FKDi3E5t3vw6hEI0VtzzWsEr1i2msMziVBgzTrnR3Oo6dGnN1kNcjO4PAd6ip5NQirRI8QZq+eJpAgPY4phTT6XRt8VjklRHbjUSCljzI1Dq/AKtEnYseNK3AuCUIUB7q4UD8GgSN2bQRTRU3zdL5XEVgleoNoMyADmwQp0tyvrPFKjm7EHrVGwqhE48zgDn5YJfpC7DgYr9wgJ3i2E98P2sBBpZJxMKsJeDGYktT2l/GQRA8kjOiBg6+6QKSSfUAqiVmNU9R0QrjW3YxPptALSYuv4hGyDlCpZBeQSnDivE5Ets+yQDoaQw1545QLDpiUCSKVVPUBUgnezqcLeaWB0SRIR2NoQOb/7oiLmJSF2KPhMBQqeQqjkuj7uMhAmRDeDZPx5EavxI9siys1lgEilTQfC6SSsaexSsqAsPtuHd4GrGcSR77FFUK1U6gSkIM+M+emqKvkPpBKnqbgKmrakdsDjfwwTJCeP+PK96M3TMSWDWDODM48pDYqUV4dDFOmGNd2LQvTjkONqaS8LCkuOigwY2nOknU3btxYt2RZztKAjPDAsPS0mPhEhZTvy2OAIuuJLQ6YaEFsWR9GJYHj1UYl3tXBVIIrzmvFrPl6o5jcKGKDwpdt33Zy8JrJv33W+e2rHn3b7u21t2XPTT32VH17sEmtOr98u+H7iFF3ty3ODQ+ONw6lhG2xxi4pjdilti+QSk57FbXqXX0MjEqin2KVaIGwfHQDpH8RIVUkhESHHfAd/1W9Du3a2Nm4ZJtKRNq/foRIrnSPsvCyudKn/ds6/+0f//x8QH5MSIKC5PsmyiYhohfOViuF2KrOfBiVHFdXSffVWCXoIPJe5JAg/YsAaWzgjcPHH2xs0MPBKypVLqb7A04QYpE81dTVune7ZnV+2j1wweagRJLvmymD+BF98EJOSeRedYfDj0rMuoONSnCspBSEw4QYEqR7QSEVCXEBi0ZvvdrH1kJZxhiELmJ5anZepW73diXnRhviAEV6oJ83nuRoYugqGYtXcEph/nsBSOdCQsqSgi/7TKlSMc8MLCGUkHi7eJ79/PiJsCQZyfcNlkCaMROfUa4JoEqqoFDJfZxXUgLxnX8M7RDPkJy7r+uenW7KcSiiHUJkarW36dZRywwsrzf9P1zCRAMDV0nM4D1YJRqY7n0TBNK1IEjjw7aPndPgrIO5hHZQhAViSVRez2YbXy4sMJxFHnLps0h8So4ahq6SMR2wStQgvC8ZTjqJLH+d77+Pzlqby/URNiDE7pYVat6cvzzaQGoqkMHftMB1GotRqQRqBQeJSlZXxTuDixE7fptpGF+kpOjtY/9r3ttNzwsZhCTbrvmRw2GGMThRrOiGI3lFwI1KkKgEV1HToPcEmOJ0HCFjl12rv9ZVyc8ahthsetVjq3LjSL67QdURud+Z4YWcj4CppOC4xgoOUF5J7FBcbqYIUeuBBmASMjF9/m973fn9BoldW80auiSO/7FJ3EW8I+cjcCp5UwWBSuJGNcvmsXcMiz7fJ4B0KiekS75s4WoIuZ5ic4em4/k/+yftWDYel7xH7tzVoFUysjpWyQdS29/iPeCqWPKympUheOQD4lSHS4/PJ/LbJ0H7I7FLCpE7f/YcYq+6ZuK82cEhMCoJGdYdq6QQwru7P89jkqSs+fdO50kM6nsjTnXp82jQ9lgeY9FkwWtPvrvBIJBbd1kFoxKNbNeDQ4FUMqKpBY+9YzhYVD/P705gRcbgTg5wmayAuFu3uLAymOSvawr2e/DdB4aAPO+2P4hKMg+pFRkwawqkknjfSzispXpKtlN4zZUnE1dM7mnACT4Sq46vN8fyll2f8KuNQY3V+EFiM+0uxLeeDFc/nS+qBpRKhjfBKjEhpr/IBelOliQF+u3xMMQBSTFyjyqTLwfxVek2/wGOvZpInC6ehFGJ+vHjYCpJeF4TDx6J3n/wWXoxdvNXbYwiQ9y07YWlfAVNJtoJ3iUSp34rQVSS8bhysUrMmo4GUsmqblglTj7BIJ3JCkVyNzuectEYQ6RW+O4GPyGl2NWRhj1sQw+YSrLWVLYsahVsMTjRv7PQVSK/PpqvpRsy9sTE05aGs/hLDSHJq7JjGR/zHMUQoW/IAVRJi2KVmEIVZJTdqiVwlUjsfCAOF2FD9Lm/TlsZ2/eDkDt1GszHfDB6bgW+751f0KhEeRVIJaELG1rquPryT+rRkfxM/2Xhx9+2Ns6qgyLXjr+G6b/X4nzbCHqOg0Yl4p1A5+CEXm4gaJVEVUnmY3ZDJuWMadrasLLRmKC06u4XpvdpTvyYPsY0GYRGpZIF8GFXsNP5BK6S1KN3YbqRGWTwqmrORuuR9xCWXW/Fk3rut6RhVwQ8LoFTyUC1xWCwM4NDL9cXsEpEjbeTMN3IBGn06vKwHZtw6+ir7xxY8lwl4zYwF8BUopFXIq7qg1XCGdGe7fpfiyBj3jQxulirdkRW+/z1XAY3aYSnYMclEqc/Uahk3y6sEq64N1+o93ocsrTRTV2MIh+NFiKbOgf0W+Il4bG9UMclhq6SbbWFqhLTtwf0vQpBBq/6uXX5EUkh7mt/WaLXoV3aN9MFOi6R2KJRyTisEm54110H04O0IdPvd8orH1MbdST2p3L1ObqLHttLmC6R2H6HQiUdsEq4YX5pu55nNyE/3HZI5fu2USDO3rNKj6cZknE+bQU5x5FE/nILSCU91FXiBzRFFahKJM0WwvQfXcigLXvLbVIEEbk1g9RfXyYMdeb7jvlA4vi/ZIg6f2TmXLUiA1gl3PDu9INexyTSoH9SyuWI5BPKCgP0eLif7Ph0vm+YB5Ses6BUkoJCJYJcwZHv8ddrGdf45D9tjDNHnjZym2N6XFkv2GjK9w3rH6XnF+dQqGQcVglrRM1v6XNMEr/tc6fyF20thaTCkc16K0AQWNOb7/vVO4AqUZ/ggK3gCFAlYvu7ely+JNPf9Slf679lQZj1WKOv9Fcy+aDglnGUDlORqASnqLHGzk9/+SRk4vyDUYJZbyDMq41OJPXSsbLNlcptFLsMlJ5YJQYF4bo7H6braEDmTpxRzoMkmkgiv/pBP7Mc2f0rfN+snkE1wQFTidB2BrvV1V9t+ZCF9crBvj1mpLbx04+qk/qb832v+gWVSsC28wms9JGk1jkSpucoUSye1Et4wUETwumzVfo4upxc10AYMahPAKrkNBKVCGtUIrZfoK9zK0MO1/ASXGjwPaZrf9XHyE+W7CmYKFQhcCpRP50Pq4QdhN0bPS3eSAu2CvioW7ej+jh/WTbBivpSyg9wKWpYJdwx/0o/W+LJxG2PhLNwowWR3YMC9OtkgV3LdQpxCZRQifOB46uoqQSuipqQVEJ0XEzCdJtuyKBdD4U1jy+Ne+3LyJdyyFu9BORrie13IGM9ZCoR0mKwyzz9TG+WP/KivpjyjqRiBPISa0lzBXRMLVjFec0JDlYJC9xr62V6E/u0j6ByScqCsKhxDnVfp58RzrBEYvMzzPHjmYdSsEq4cWckCdNpulAsn1JBADtuaOHd8mkQ2i6XLYzk+yb1hqT154chvvUltvOBhV0FVGRAeSYdps90QMb7N3MTzg8lFWKHKWFod04m/CaY1B259W1/IJUgyXYVkEpsRyLfDyxdNtvIz7eBxr3zXbSJPDd6CCV5R259BkglL3tglXBB3GEZTJeVjTTrS2u+b9PQcEtZiPT8Q8VWM75vUU/IrbusAlGJZkFGrBLGeP+LevkmyX+fYEbbDIicgPS08vOb+L5BPQGoEnx4BSccV8L0WNmsaYXjrVogrL5DWUU6bqJA8tQMXSULBZOidjAMpsfKQHa5rptQZu1MSa26AGG62mZ7YfS7gU9wZAsaCUQl4v4od4WQab5nzXDAtSxSex5PI1H1fXwNd77vTy+oVPIcRiWaYVeggowJq2oKJF8wdQTCPSFk8DfthFbUixFih0noXLLVg+/b0wty588MWiXDLwlEJa4It9+QOa8jhb7nhgKx9akcVA9glx3fd6cXUKkEaIIT73vQgsfe0SORgSAdppXMWcL4XeSExefhiLr/XE++700vIFJJVaBs15BhM7N57B0diJVK0NhDnzSQDtOCLOe0MCbrHFG2u4EmWy2rI9+3phdUKhkOpBL1bFeoPTiGqxL3PCvIwDzRPgakw0qTuKoFDpPQQrR3ApJstYyZfN+ZXpA7dx0OsR+VzNRQSfOxQCoZaagqcfMErR0kfotox3v+v3bYJDQRW/yUgeARLK3G943pBblXXSCVzFWf4Oy8D6SSec0MVCVRrqDfUFQqiT90B5uEPnn/IdgqvLkK37elF+RedeYDjUrUVKK8CqSSuHlvDfR4hVTYUIlJCyQTnIJnVjibhAneTeCPRkxuyfdd6QXVqARIJerZrt4zB8P8yMaNMlSViIG/og9RVBgIe9Iam4QZpjNGQBegWi2QxWCoCY5G4rwpmEqGXjVQlUDjso4E6TE1yOgXgip5DsQVH+Dg6zNhJGyjUYnoKFYJQ9xHQw+sZXc748KLLCCsvwaNWyXUFMZ+PjiVDFTfzgemEoOd4EAjegD8Wyi7XDWK75syTkS2hyDnOAXXhRH4RqMSydUxQCox2LArODtBky3J6B2thPEJRgCR920YCfYozrlQv2N5ACyvREMl3tXBVGKoeSXgwNYryd3dWhhb25FAWPYLJIGehGKQKd+3ox8MXCUhI7sLRSWmE+HStpMWnRVKGUBEpFZbBhS7CpomkEU0VCpZDaSSYULZzmciqgk2w0latQ9Pbjgi6bQQxiWb2/F9K3qiUCUwe3A0VNIdSiW+QikyYGLS+zlUxfmVVXDlRc4om8McuLVaKCchwpU+2oFCJfHzOwlGJd7HgkH6TLatCq4GDYB35VXRAE/jS2EsBatU0voMTEFGje18cCoZ3k04pTYqwvwMnu+O00lAkFz/nvsCfUYVoYS/JTbTgE7nO6R2ZjCYShKeNxaOSkxnAaSWJDw/iwumAUF4/J7P8XGQ14SR6mpSePz4xZMgZwYHHt/jXNQqnEpWdRaOSoje60mO/UWGjJuB4yRwePwVze2RxHUSzOOQ2P65EkQlBdc6oFCJv1AqzhciOlPA8SkEPMGLwKCkXlxGcnggivlCybCEVMmgDsWHSMKp5HBDAanExHYYt0WcwG8FklmpPyy+y+DwTMJqCSSpxMQIVCKYI7UKEbdfz6GzkhYdNef7DsofZq+Gsz5vK3a3ULKiTABVEhZRVU0lUNmu0nOCOejzPWa300m2fRV/vLm3gf4GEmK5JNU9ytXFunVk77Vte/bt265du74qWrZtY5dnae6ulIsMdaGDMG2xmqVLEp4+NNS7QoBKJQsMWCWh2+oJSiUmHoPYrhkk+Dw0xEVgsdzdLDvPvsXObvV+mfLs18cRq58vWHh527bCv8sLkxc8H/PH7i+7Htyz1845yl1ikCqUzFjFbk/DgdMCMgmgSsbtxCoBwPFvVh9bMm6iNXXjeoQQi7wtHdu2b3Jm8prVh9cXxJK6rj4xOOCAv9+FadV62Vq6iwxNKETkITbJamkNBXVoiCTyOyiVHM0rahVQJcKa4Kh+xSssYBPmC/rDkLKCxZJsp7bd+6/eFlCQFpMgI+ndA5kYm7705JsvOthbpsoN6/fc6hnzc0ATxgllJ+oHwFSSvqtjsUpMZ0Kp5LKgwq6FEFW2M+/94H9t+L7uIlJd7Zv/MmhbAeszkOO2j35Qs7KNmyFNd7KPMS1FT67cy/dF6xc4lfhcbV3cKlTpo9CFgloMfo+yGuPsksDdkYbxtZO43an+2vdGvoIkOTx0klQEB5zzmdYi0sxgEry8zyxhdhPn3wos61ilklsgKgl6+rZYJeKdQAUZpbcElO36CWWjFSSjXlrUwMIATCJye9j91+FZ0UnMLr5MZHEF2wYd2WdnIDpxT3nO4OKTTvQwxCA4SiSRv8CoJH9ss+IxNphKEv0FtJ2vCPN6B+jvxiETFlTjf1IusXj49utRm2OhPPLh1hTx6QcGHzva280QfuDde40qoHt3CWOqC2VDcBFwKrk/U00lUGWiE4Y3MaRwor6IarKA7joOGTO6Bd9fNEJpdXrj6nVxJMgzL3mDaYufTjvrAnyCGavbfPgVzayfkFEtBWeS9yqJh3jgaFQSP7+GEFVi4r1zCL2nQgb+XYHnCYA8qlX9ueuDEkmQJ67tHhMyk39sfMWD9zCs2PLYDRrLa2T03JaGMSnTKxLH/yUDqUR9gnMUKOwa79tUQKnHakjaDKU1x4mezXM6CWF29sgCrlvxqVEEPp/UwpL3MpNR3XIoF6bIoD8EeSaixHGWQatkhGBqu5bE4wn18qNs8xleB9KEt2193zioOpIUSKPnT3Pw5jnfRNRyiO6pJxk84qigMtOKUBq2SkKGCabifCmiqm+j+JKSbzbxeTCC2LXFzcvBrNNHmKPIT3592opfmYgcZ2eQOq5x+UZbAU5uClF6QqlksEasBKpM9MjqglWJiSjy7wAdMolfdcaSx6+VxHbamKWs98yyJTF83s8V3fi0CeF91q/Meki5v7YSyKk3pVF6fgGjkrQx1acXtSruCKYSwRyppQXC9n/ny/zRTx9TmceDPMXZp//NjSdBHjIjyMSsp3XseD3CVFlhS5bWa0ta/yhSoEMSFUqHL84BqaS7mkrgRiVCVomJSWqF/je0yURWMPStB3+xPbll9bHsE+O5Qsb88M9ZVz5HJmYtVgeWHC+SIcv/cxSuSEBVoj4qAYuVCFwlJmKXlOM5ClKzV2ThYxo68phM4lplwA24owRZQMad2NDXlcf1HFFkN/98dZmQ8SceVBb2RxVOJYNR5JXEzWsm7OejwmLnuACNEUDIiEZefH6NnGavADoEkwOKbafW8rlSIrc7dqA4UhRyrn9FwQZJPgIXdtVcwYFSyai3gleJCZFqe/XmicA4hVSaFJe5flJfPoulSWynLOdfJKGFiWtLJvXhcylc4tx57uLwgsylJyI+a2XOe8oL7wCmqGls57sPcbhOoUquCqdkd9kQoqjWmxqcen3hWKN2kWY8RglElg1GROspj4QSMubybSceoxOEu8eVvu0rVWhtznseriGgUglU4ryaSkRHoVQytBpWyUfk7t7eqbxWGBObp2zJNBSRvCcw4iq/eSYElsgnJJG/wNQrUU1wilXi3mwwVkm5w7vXX+cBzg8EJXHdgLZRhlVxTaiAlT7SiJV4z4SKlQztiFViEBDee/9ZoveMNBrI1u1vyffWaIwJMpVA1XaNHY1VYhBI7I4s5CMjjQ4xt5rk4XkG74BVnM8fW614goNVUs5QNh+ps2Q8v5AB7xzwJIdvwI7UCnqqXnEe6nS+2NFHsUp4R+45bT26ciQASGPGduR1Yw4GUCXpPhoqGQKlkp1YJXwj3/uY/ZmBeiJh+2+9hZy1bgBInAxbJUOa42Nweca5pgEkt1KT4N/NGueJ8YjEqR8ClaQ2g1LJ6qpYJfxitTuABHmWqJFlva6AJzn8IXG6iCBWIuoIpJKY1fuwSvhE1PM+rxv3GBG/sJrwqjMbDIAqUTudD6xeScwYrBI+kbe8C3Q2ml6QneiOAyZ8gWZUAqeSwa+wSnhDbvvlMoPKk6dEGnzEAaeY8AMilUCVPoq+v4fXglmCxv36r7oKQhokZKZPO/zjwwtgKkn32amuEqAUteixWCV8ITk9GM0hWWhJPNzABQ9MeABOJbvUVQJ10Gf02NNYJfzgUcso1oC1UDDQE0dM9A+gSpqrqwSoyEDw09NmPPaOcBFnT1lKgjxCHkgY3QKvCusdyfRHJ2FUMq558Tlx4uZjgVTi0x6rhAcIh9mGuAuYLtIVbfG4RN+AqSTMr6qaSqo+BVLJuB7ePPaOUFG2GRYD8vz4grxcBWe+6hnJ9ItAKonooK4SHxiVpPmdxSrRO2bN7vJ2MgUQ0hs18EKOfgGLlRRce+Vc1Kp4H5BK8iNaYJXoGSKqsz9EjU5+kS2sjQuM6xVAlexBoZJB7bBK9IxF0+3GHCf5hGxRHewSfaKa4ICpxKuoVbAJTtC1vkI/XkTfuO4OB3l0vEMWvLDguzOFhMQGKOxa8EZDJUBh16A3PbFK9Ir5zwZfm4QuZM5tvI6jP1CpBGhUkj7+OlaJHhHZ/GFM2/coIEMe4VQCvYFIJft2AankUEusEv0h6vMY5rkZCmHT+DwMVFhIbH6GUkkVBCoJm9sSfxb0RmoVX0M754Yr0b9Z8d2rQkGlEpCKFMhUsherRG/0jihfY5JCsr615LtbBQKYSgI1JzjjYD6UBS/bYpXoC8v95c8koaHx3/TGpdX0gcRmGpBKjqurpAOUSnb0wirRE+5TC0CemaERPaCdku++FQKS1mAqUZ/gdPCLBWgUq0SPmDUJBnlkhkfCsO7WeKcwcuR5n0Op5LS6SiKwSowLy36BIE/MEJHd/c8WuwQ18rzbhyHmImTmoRQ1lbwahFViTIicj2SAPDDDJCln616crYYYufUZfxCVhM9NKV52E++5hlViTPR+UU6y5csi/JueEr47uZwjt+6yCkYlO9ojUEkYXsHRA95tB+SQIM/LYJEGHr8ahUu+okTuDKaSHi5FrYpfQakE55Wgx3Tn90EkyOMyYMjowZdwhglKAFVyVl0lQLGSsEM42xU1lp1uGX95EhokLZoVyXdfl2fAJjgZA1GoJH38dawSpBAWl8YlkiAPy9BJuvudCy7TiAy59RkkKgFaDE4fXwlv50OJqPesW8ZzKDBHZFmTzypxwAQR8jygFRxNlUDllQQdx/VKEEJ4nL7wQzmqKkCFLOf42zzsEjSALQZnPK6srhI/qNJHuIoaQty67Qo3tqM8OUHGDXvkynevl1PAJjhZa1oUB8jBdgbnX2uHVYIKpfWZoTEkyHMyHuLPnbHBARMUgIVds95tUlMJVEHG/IhNuEw0IsR3fr5cHrcCU6A4N/UhznxFgNz5s+cIVAJ10Gd+RGWsEjSY3vl9m0CWbjRJvLEbZxggAJVKBgOpxA+rBAmE99E5WUZ6vDhXpJnv9uHztsBBpJKjY2DWBfLx6XxIELWue1KAk5tPKO7WxS6BBo1KRB1Xw6gkbVwPXDMcHsLm9vN4EuQJGSchI6p74UVhWOTWXRCoRNlsCJBKdrXHKgFH9HB2ed++R4Xi8oMreKswKGhWcLy7j4ZRSbBPClYJNGKnnxaBPB1jJmndlxXwojAkcHklGippOhRKJaejeOyd8ghhumfLUkHlpZVB1jcdcMAEEHkeCpWYNR0FpJKnVbBKYHGtNjSYBHk4Rg6Zf/9SNg6YgIFVIixErX8TdsBVDTJm+OeO2CVQAKqkBQKVRI/dg1UCiLLVixtJIE+mXJC4/qdI7BIgDF0l9/F8FpDUSjczSZAHU04gt79wxrXoYUCjEu+DQGHXmDE4LxEO0z3fB+CAqwZJm/EcBwiweiUBmioBWgyOWd3cjcfeKV9YdAfKQS5XrP/LEo9LIJDn3QZSyR+bEIxKYod0xCoBQvlqPF/VoEmpjGo0JJWSergQLSRsa4YrmEAAqRKPola9oWIlcUOvYpUA0eslP7tuYhcP/ffJ7GtpOv8p8e5fv6/M5GV/oWzMTDzFAQBOJf+0Q6GSUc2yeeyd8oS80QmQR8IEMmaZX79KrbO9vZ13Juscl8R8by/Jdti31T9L75VmyawHOKMaAEnrz2EO+gz4vpKaSg5CqWTeTKwSGKL+ygR5JPSJz533vz023u/T0wnH0TqHHGk/Rqr+SWLhcPTJyYx4/caGk062xMMS7khsfoY5fnzphOvFU07JW6Cwa8iwgxY89k55wvXvYJBHQpek9OOdnIrqu4sfDtOpkqANth//0exO5zWb40g9XWUhZM5MXFaNO5Lpj07CqOTftsVfenFHoJ3BISOa4pgYDFaH9Dl1SMx5NzMvtfjdxRVX6hxqpL+e/ulfiVSXdke26bPobHhtXFWNOxKnfitBVJIzoGLxVER8FKheSbzvJawSGKz99JfmSkb7vbXQmDSIrx/Q+YqwCzbq/y65899m/V1uZlccLOGOSiULQFSy7Gab4rUWsCpq8fObYJXA4DRYX99NadC4nWYlog+iTSt0vqZgcl6JFzjvGZuhpxUdrBIIwFSyZM7a4rxUMJUkDK/poePqMfRx1B2sgCPYr5pXqdiDqP1inS/K/Mu61EtcU/YH6iUAG/gZ3ujFHUCV3FFXyWAglTxvjFUCQ+9VelFJ9PxqrlqyRyX7lut8WeYT59IvEke1/XZ9AvprDuyCVcIdQ1fJqs5YJSCIKybLQB6JTqTpO/pqDWF6V1+i84WZ97SoRDUycWl+H32yf+AZrBLuoJrgQKnEv5GljqvH0Ea+6QBylUiDX3YsI+pgdilH50vLUInqo+TWaEE84usuuI1Vwh2wFZxlE9uoqQTqHJyEw7WwSkBI3bccddwhJPnnvLJKL5s3WqrztWWqRHXlM/YHob30gmlYJdyBU8nNtWorOFCn8yXebYBVAoLp21y030cyfUCfsjO9smtn6Hy1DpWYEK7T0Ob8FzzCKuEOXF7Jj20QqESxoD5WCQjeB7NQqoSM8WmvK8/Lomu4ztfrUomJidLheCzCiw+7iFXCHcn0izAqyR3QSl0lQLES8nJtrBIQzJogrZ+WO/lKqq639+iieweQbpWYyCtMiEV3+VglEEhsfoZJnM/9u5V6tiuQSkK31cMqAcG8URgJ80hKQwb7bqJIPbc8Q6GSKTpVYmIS9dk5ZIn/BT/j02S5I2k97TDQHpw+antwsEoMDYt6+STMIymFNGurI1UhMkuqUQmVSkzc29yPRnQDBZ9jlXAHrF7J0l/Vt/NBZbuGbqvjwmPvlCNcb0eTMI+kJDG+Z00p396FalTypFS2aymspgaiuYPArtQ3gKFC7twV5szggO/VigyIrgLtDMYqgcKlH2WwQcomHVa2ZNYdGgdmUqqkdOJ8aSy7sVjQJqm3HmU2wMcHc0dsVWc+RHCcDPijb/FUxBTqzGCsEiisN1JmoCexKBOSePhqyZ17WnG5rVslgVtpqMRE2eEW0zw7MjqI8n8yOuHTg7kjdqnvC6KSrDUoDq/AsRIobP4iqfo6YeCzzcy+qUkrJrWiV+rDi0ols/OoGzExSe0zkdl5x+QKn1zKfwo4iFXCHbFlg2EwKnnconj8AHZ4BVYJFHZzKPs64cKM2j8wcUnM4auWNEsZOv8MMSoxMSEsa69jUCyBzLr9aB3lfy19i4+v4I7Yo+GwGPqPpuxnljEQq8SQ6bWDsq/jJ7eWrB1H+4dFuvmYE+23t76oO2QaSCdW8h7RpgjaKznSHw66daJWSXhtHHbljkolI4FUUhmrxHAhdq6m7Ot41SSDsP4rht4MQvZDDwYFg6x/KdDZGn2VmIicjtC8xKRFfSWSTrq3JBcSu6UCHpZwBo1KzA6CreBglUAgcT6iuyBiISHvF2TlR0fRmEGQgRumMynTPn1qmM72aK3gfELZYjyNdDUy5qW96s5rUqtEtvhFBbyGwxUwlYTvQKMSnDgPgOjOxQXUE5e4e16F/6y8MlD3CEKF7EBtD0Y/5LZHdC+kMFKJamAyOYvydtIn3FFdoqQbtUpCFSv+WouLznNEbAmlkpdnsUoME7HX1X9PhJCUfR13yurDC6LafrtY1/NL2LbRieE3z/OrfJ3vzUwlJibuDl9u07l0nehfw61w2ERnVKKaCt2Ycxrvw+EGmEoyX/awKmoVq8SAEOed8Q2mE1yIffHpx0CUvel//uFJpLb/Sgq/9WUlC6ZnUDn8pfugT6YqMRFbtPxlflkngyZFb5vcJ+r9NdJTSSiZfvytOV4S5gIalXhjlRgKYtfmE3LorfAWq8TEhHB/WGfE0lJDGWnI0lH1K3ozP8yu92zdB3oxVknhJV7pOjwnrVRgRxoXMPKvnp+2qdNUSWho/ImplZSM7wtTBJxK5qqrpDuUSi7jeiWckNvVG0v3VG91lRRitvaziO3BCUkKhUymUCQlxmZcHljHnt26qf3XuldwWahEBRHl2fHekMsBwfFJqmtUoUjIXLSm9gyz4jgObZWQCQf+7UE3TQZTmsIUNSCVtEehEjwq4QLh2n6Q7pUTdWL/K7lJQWRmu6/OqTk7Ivwe/3rhi+4V88zYLpraX9D9KWOnksJblETZ9KnW4MmOeb4jhhzv//n11qYa8xQJjbySTyTd+qo3HpiwBU4lh5CMSvBiMAe81x4ZGkI/z7y0SgohCLEoVSIWE5xSL+x3615BYq2ST9eoNPU2dZeLS40qJJ1u0P+0KTJ+7e6FU0zYIXapPQIkcT5wfIpXUatYJQYAYVHjn3Amm31jj6DbOmn/GqVKdCBpovsAnhJED5/aSmc5OExZiK3qwWznCzxeBYVKTtTFO4PZ4b134zlm402UKrnSX3cpi8CttLbzMUdyiZFKQhVL3nUrfbgghhqxVR0glbzZU1wHC6uEb+SRDQ7pPi6iNNonODBU2MCbSjYz6wUyeMGUq1ZYJoyRewHVKym4hlViOHjvvHmeRlKaJiVXcCDhTyU1GKokNFRWsPLYWXwgOVPgVDLoVfFsFy5FDauEOUrnTv3Xx5CM+zr2WyvqxlnC3wSHuUpUMgk8/G0Pc7wwzAg4lUR0wCoxCEQPu55MZ3OoZxxWySfIxKWPZ3pglzABlUqgigxglTBE4tRpbC6704HjTnlRt88SI1OJ6gMdt2hDNWu8X5g+WCXlCsK7z8YRMSzPGY/7qlyqhNkKThGkYmnEtIc4ZEIbQ1cJLhPNhKi9X3B4mh+LDCCBKq+EZm1X5jDMK9GADHrzeSQusEYTwLArGpXUwyqhS6rD7eM3GK/bFBM3BVGamIrek/hSSU0G2a4lkUYv2lBrOk5ZowXkCk7xYrBZU6iK83g7H10I8+Zfb6Y8oEIXcTSOtWJLb4rEeXQq6UZ/D44WyPxzp1rggQkdVCqBSVFDpJKFDT147B3jQeLR/k/fAJJTX4f8hejrrML+d92ZtwWTkamE5s7gMiCTlh2q24rWWT8CByzbteCNWuI8mEpkCxphlVBDeM+4fX8d85PrNAnZ2hrZFfZ+QKGSrxG9t6QxN5WoiN3+dzVnXBaJCsA9OKcRqCTRvzFWCRXiqFYN3p1nsAW4DFCqxGG27nolhqwS1Yd71MaepnjHsG7ELrWBVDJerV6JWQ0glSSswiqhQmnXbcIJWhUXKQiZjU4ljk90V1EreIBKJZ25qySUTFj38qCjHM9ydAFWZCBzbg+1MtFgKnleE6tEJyLXq2uyWCaSlADlqMT2K921XdGppBGASgpZ8mtlvAKgCziVaFSch5rgxM+/5Mpj7xg8hHuvz0cVwJgErUq+1a2SsAuGPCopJCljTZdIegckCxOwCQ4ilYw4aMFj7xg6RIU6Q3QfoMkElCs4Ti90H16BTiUAsZKPyDIH1XXABRvLwsBVEjKyWTaPvWPgeLeavJLGMXW0OxthipoT1ajkd1Qq4ZZXokniynuVo/BajnbEVvVgUtTQqCRu1FU3HVcvZAjzSsd8o0mQbv5A7Cl0O4NtT/E1weGQOF8aadrzI1WicPhVG2IroGxXRCoZ2hGrRCsi58+GBQIs26gR+x+6uKLtPd0rOGHIwq4sdwaXhSLzeVd77BItGLhKYkcfxSrRgtyrxo8rAOc274n5Et1qmeMUisXgrxHFaeQHF8P2Epl4fsdbpuecCgFDV8nq5uY89o6hIqn4xYFo2CGJiuifEKrkL4oUNVSJ8/KD26H7SRqXPHtTNh6ZlAAuVjL3rFqKGpRKYsZUxSopCeF1dBdQKokG0VPRLbx7buVLJd3BVRJKygLn/TnDG80FGy1iF6jEefUjtcBS1GLG7MMqKUFqhd+ex5Eg3atJ9BfoFt7LlUoKZznLd3Sejtdy1IFLnD/eXm0PDphKBnfAKtFAZN3YJx2kb0sRPQvdwrvnZAqVbEW0EI1GJSqkS75vnof35RQDuJ0vRV0lo2BUEn1/TxSPvWN4mLX9YiTEfhttBP+CLsR9ZYvuUioh1x6i+Y1HppJQRea4X67gUiZFgKmk4M1pFCp5ehqrpBiJ8/98gxCJRKWS7xCphPB2mLVe92WTgVuatkZRlBmdSlQyKRg71Q7Pcj4CtoJTcO10cemjqEvzYFSStqs9LtT7CTPHWs/OQ68Aq3f2n2hUImldwy+dUoAhOXM2IXjWKFWiuugbA7p74o0575F71R0Of6QWnEr8KuNA+QdE2VcfnEhDNiQp7Ox+SFRi1dhXd07JJ2TLf4fP15BXR6mS0ND8w5PP4sO3CpF7dX2u+1gBepBhfvvUVNJkJIxK8gdtwiopRGxW8eLwcAQrwGogUYnI7jjtpFwy4eRp6O1yqFUSmpgVUccOn5cDqZJxVYuX8+BUcq0vDmypkHh2+mNxEkiXlk3an+ArOIRps3MKBpdALp3lDPsTL5+JWCWFh289qGSBByZy589gVJK+qzkClQS96YlVYkJ4pOxOTkM7JAlFEXYlrnybwWxKRqYf6g0ayJQ3Q60S1cws4OVtT8EfcWHoKjl+HavE227amDDkIilcDAYelZjvvMX8s5Xo380N8Cce+QSnEDJk8ddVrQQ+y5E7d1kFoxIfFCpJH99S6PFxudO044hy0koQ/D/YbFfnuguYTG4+kXD5IuAkR34QdmdwWcQsnDNT2DIBU0nQUxQqCZu7V+Aq8W713QmIJTYaRM8CVYn5keXs1pukGVPh9hWyPjOYKbKCp7fbCPnDqlKJvyGr5GVbIT8dwrTPd6MzQXqSBrDb+azmsA8TRz8Dm2pJanA46JMZiVl+0+yEOx83cJUU7OglZJVEtZ90Ih6kI+kQ/RtgkYGofrrLpummoCnUY5dcAizISEXw5VNVBJu8YOgqGdhHsJFxsWmlI3eR5qSVIPoYXBU1j2+5KfBGDaBkNUkTsDLRNCDD7h55ZSHMTX5wsRKfnQhUErimolBVInY8ODiTTdiSNTFfulBfFj2UdZdyuxbZrRkwa8KSmpQqIRMT4IStyBh1prcgZzlyZ6AUtSAkKziZ71oJUyWEeZ/X2xJJkE6kS8wRKJUoe2zmeumywZtAlnEknXOo3iptvs/6GDCZkIp133f3EuBaTuEeHKC8kqpqifOdhgGp5I8ZQlQJ4f5w1q50wCFJUmw0dRA09j8olUz/m/u1Bz0G2RMuaZBL8UbSk/XXNtuwkHrDIV2kcbde77QSXPorWJGB9F0d1FUyAkYl4f+0EeAZRoRL87+DQPrvA/EBw99co87Uin0BpBL3PwsArjrkc4iNwql1wineRzakh4mJx8w5t4LgdiYkPe8nuPRXsUuDYTAq8eugVmQAq4QDUXv/O5xGgvRfIYnLD108a3f2D8p/jPvKi/riaCBqdxLiF55c0RwgXJJ6RvexgIVTqRaF/+fc/p5PIJhMEpfvfyuw+n9ij1rzYgC6jgyL2INAJaoJjuBU0vvLu1SffvqQCQsHXLJ1NzFx3ED5vyGzYc6icf4G4hOluvZxAPVeU3+mWpSWje3x4V/Nep95mU+CXLqK2OTbDoJayhG5Nh5q2CoR2DjR3WHKerj9NiE3Htdr5Vb4iXbYT/nP8Q+mQ9yB8rNgEubqw2ZxXxF2/45aJWc//q/Y5Wz/bWC1pRLm/89LSAETsUXN1boL+NKDDBukphLzmlAqeScslRBuDfzAKi5KYxfv7p73sf8c+1P+f8IFEJXYP4e6ATK5NefvovtGqrpLsqeVi/5bbPnqQXIMCXP5iUuOwe5yNmzE2ZcGY5UYDKavRsJMDgqJHfOFfVGGg+1ryv9PADkhT/4FlzRXTeIacp7eun9L9fGW+bRQ+/9UzwZPgfY8kbIFXdHV8Dc4VCq5T69cHkW3hQ2qglXCEcL152FA42syZPnjug/Nin/UI3dTvibuFETY1WolCXMLhYxy4no5pn9RuVkxrp3GK9ztHkUEwizEJxzuLJxzasVuNYBUErGneDHYvKYvVglzoqrfAvpBTMqJ+LmXm3rUz/YB5YuiITbkymvCPPmPl3Sba7TE7DVVlyrG9dR8CeHS9/fDMIeWpT3uw/H6jQexW9OxCFTSbT5U4ryAVEK0+R4m4Cot8P9vU5RmmGH6ZMqXgajE2gfkFj7dyQhbjtdj8QfVJ7GUSlTfCtuD46jSUWhBHqghmMgrmEoKBmGVcMS79gGIPpPmL9w6c3rJbrPZSvnCkGd23G8iJQviHorIbMItcEk4DqGaMmpRiYnYrN29lRALUeH/E8znV+x28Cm8Sty6AU1whKQS8fS/IQLg0oA1dfNKTwtoqETq2zCb64qDZCPENgy1axrLrRyTafMDVCM92a7SKlE5yOrgjlzuEZOYrwVzJJzYHIVKwGIlQlKJsgP3JFEyKetafSdtXTZ9NvWrQy5Prm7FTSZmh4A3M2+vyOFqiKhXx2NJineQjW2n9cWiyPpPOdfmTrwJWAPGsMEqMRjM6nIvHRh/4Nlp7aXQnKhjJaGhSbmja3FK5SBsT3C+hxJ39BOHy4nq8E8GSfUOsjGVtb+acG1+fCnly3UjXQOTQWwEgKkkLOIVCpU8Fk6RAZe/Ajn2VtLySR1cykjWtqWjktBQxY1/r7Zmv2oiqsz1HkoiW8W2nhqRvffrHyjHJKp3GNW+zNuJ7L4rh9vAJOIhy8s3OrBKDIbpNznmdsUt+rZXmZtpaSwGv0e29OnFNlFsRyap9cGLNaU9ZHcxEuuaAzbT2Z4nG3m6zEbEbh0f3IgnOVz+WC4TNKNCpRKgxWA/JCoR0ATHfgeniGVC5oSDOnblR16g2Q4pC1x925Nllqn5PS63oJX4S2wGSXKLV/uX0isdJfWtoqMhwuztmpwEWg1pZUgldj1pfIjNmwKlqGGVcOTONQ7lUGVBPr/Y66pQbEtXJarvVuL2CW9tWdUBs3nD/hbKuprZzAsvyy1T7vnS3cskHf5KZ2PKK138AljPcka20Nl4OULsVmOwIavknXDqlbTyS2DdTwkH/t6ku1AQA5UUpt3fnVzJlcUW+T4nWd9CmRxnvAYSVeknBluZpM/3UbTn3vLeSrZfkvkpzHvROBG7XRoDs51PI1YClaKW+YeAVDKOrUoUS8Y3sKOYBtCe4HwgKWPc1DvMu745gvLu8xjuV/Z2uDguXEHSbl/qX5WqSZFL1dfL2T2dVbqHPOUIsVsTw1bJWsGopKIPu6180qD5v/WhnAQwGpUUkrBkwsw8pkkm9RGc/5V8hckVKK0aDbjB6MMnPdyculmRze1BYWxCyoephjzlBnF2E6B6JeoqAct2FZJK2o5lp5LlEztaUbfOWCWhodGHp/TNZrZ88h2C040XtaL//oRH9cnbGCa8S+/SUImJiVnbJ8NZuOTkTkYdaMSIszshUAnczmABqaTnauaVRUlFjk8nJzoRUhYqCVWEPZ/cwYLJyOQFXCnJIha3pfvu7o4z55wPZpoyTFMlKk1V+vpyCMmw9QUdGXSfUSO2QKMSPMFhTLuhzH/0FEt/3+dGa+DARiWhZGLWtWY0hjxFTIEre1TECroqEfW59zyM+VILXZWo3sCpy2Gmn+tbVxl0n1GDSCU4VsKcHv4kw95JzJrQ2FlObwpiS136SBtk/PpvrtrQXhj+H4IJTvIdOu8sckt5siqITTRDepcy7FqEd8sj26JJJq2fa0a7cSMHrrarHxKV/CMclaQwXUhN3D6AfizDkZ1KVAOfgl1/9qab3NMQQdh1tTX1+5qIbA6+yWJ3miETlZjIbfutZnSOs5BUAjUqwSrhyJ6VjLpGGjD3kjP9oKjjJNYPQZE5t1YkvWNwO1Idhccc6X7q82TEzvsmLGebRcZIJSYmSs97/gxKrCVjlTCETPfTWMGZz+0g+0+EC0glrxYw6e/YE6d6mjNIIuOgklBp2q2bTWlt8mvL5B7oEV+dKu5LmF9/MpTVSu17GKrEROTYcc0SKUmz9eS3jBo3YuBUon7Qp1tjKJV8j1WiDWn+4Ed5jLJRuahERazvT1donLvpuYvTu2gj7QrF0ItwafpHAYdKL9KTzFSiesdeW9fT/XxjlTCFDPKpWnz0QXbn4VglTKGvEmnI5b87MDyuiaNKyLjNf9dzMKN6T7ONJKe3KY3MX3ecRmzR48gITkeHS+8yziKT9K43jmZReiGppOYQEJXkjz2qppJGz2FUkvENi+xtI4WuSkhpxuh6a5nmoXJUiYrg9c+qW1C4RHIVqGR+EQlTdL9h6zNPM7gVNpAe7sCwL1WYVtlwnlZGoZBU0g1IJYOr2RS1mt1oFVYJU+ipRFZwcuCsVxaMt9qxXsEphsxctbGyh86QCWG/mPPbaLKkr453i4ps8voA12KyUn8222RSH9Z5U0DDYQJSiWtjGJWkjblavO0KTCVZE4Sjkg636PRz7t9N1lqwqODBfVSiQpYT8flab10jk+z7cAcev3/HcdrrSxaibN2tf3IY53q47FRiYuJ2dgKN9SqsEqaQ+WOuIhiVBPxbgVXdDGOElkpi/rFnVy4xEkIloSSZPuTMFR3RC8kx2Irz+dPKmskpWx+cGywjub8FW5WYiNduoPamgBaDwVRyH4VKlm55KBiV7KOjkvTJLuzqE4KMSlTIYm693uNcZqSGSAmAeZ8PkAvXan8fucuee8+5j0gKYa0SwvVz6i1HAkpRc208Gkgl1Ypra8Op5G+sEg0CN9JYktUGy8R5bcgW3qzsUVawJm8e2PuoSHqn9RgZeXbzC7SXY6lgrRKT1OrUMxysEqaUVAnQCk7uAHvhqCSZRoewPu0t8neQB/IeRcGa2mVlrCnrQQZLwndqG4MpK9ZeHQ4xt3mP9DBblSh33qBs/dxMlo0bHYhUApVXkvtjb8GopCodlWT0YxmGtgVUSWho4rJ/m2mf5RBrcwDfZ7Rz6XdQ7r09NAtkavMB6V0Wi8EfrqTqZsrWBaQSj84IVAKW7ZozUTgq2XmORodk/cx2VAIUK/lE9IKvWmot3eb9jl0FJ20kdC319MXWTZ8uBT0hg4tKqA9BWygglUAtBg9WC7u61RwBs51v2UQ7rBJ1Am6z7A9olYQqco53aaNFJuJaBWDvkdGrxPxGZN2x/0KYj1YRHFTSnIZKqrNs3OgQuwKlqKUNflusEvMm84BUMkc4KmlORyVLu7BVCVzY9SNk/LJ/qmlxifNQqNlH4vgSzXvPuJfMsNwiNYhHJUJSCcweHA2VRF0ahVXCFFqjkqWfsewPwBWcIsi49fequpV8J0nnNBKm/SUz1QclYrOeL4anw2bAFcJiD86nO+1AHSu53J1l40aH2BWo9JHGBMes6WgYleTgCY4mrEclKFSimuUsP17No2T4tfUu9gf6aLDDUq1VkXPVd8s5HJNXJkyLDKhdUpXtlK1jlTBFpZJmairpvhqrhClHF9LoENaxEsfXIA+kJKTi/P7mLpoyEVXeRkI0faJvcfKKyGPflkVSiGZLwbzIwCeITYsoWxfUBAdBrMR75n2Y/GkhqaTaZRodEjCNZX949gd5IKVRZIzrcsVdIzyavRVif3DCb8Xpaan29SIy4VaGNJCupFsmuhS9tlG2LpwVHBESlSirPcUqYcrbEzQ6JOMiy7wSuzkgD0QbsqyIutM1BiYPV5OcWw0ZVrSRT2zT2S8AMJNEE+kC1kfVzKBOUBZQtqtH56HwsRJxVR+sEqY0+4FGh7BWSe+JIA9EK9LobV9Xb62W8KJ8xblcNHn402G7Euejv5+MQWaSUJK9StbepWxdQNv5XBrOo39Ss47nka8+KhHv2wWkkpvCUclMOirJesR2VIJQJSoKkr/soVZ9wP0I1+efcfpjZr58Rr/5LE63oQ956yjbR3blOWXrwikyIPeqPQxiYqu5MxirhAX0VPKzYaokVLrcr/6MooKNhON4bpGN2N8/BEqU9jUGrkcUJPkIB5X0HkHZunCO1JJbd/XFKjEImtGJlbAOu9rdBHkgZSON2zanmfOnqxOtHcEpu93/fXEBkeXZZwti0c1t3sNhguMwirL1W9XYNm5syFvffg7xrUelEhwr0YT1YjBylYSGysKef9X+U5aJpOdJ9i4hMzu5q9qIavXzfZrVmDnAQSWOYyg1J5xRicTp0WGsEoOA1gSHdYpa7x9BHohOyKTwsY9amX6Y5chPb2d+nPpHgja4mZik2nb65zyKnLQScFjBcfKjTMYTTqxEEvndSohsMpVK1MOuHcbBqERIifPVD9DoENaJ870HgDwQKqSBg+u3+RgwbX+YnUukgV9ZmIhsaw5cgnhq8/Ht2KvEZi5lcEA4RQaUDl8kQ9QDKLGC08EP5hADrJISLC297Z4e9ltAHgglZNzh369/OONCVHklyaaFZY+yRZbXv/RFuACsjnQla5XkPaZc/bwsmGxXZe/fzoGoJG2wWr0SOJXsxyrRILcuy/54+C914wnrfwDYd0vG+E7u875spMhuNPPBqWLYadPpVecMZ3TId9kXQ11sjYNKnL9Jo2r9RFO2jRsbqfYbL8Oo5D5WCTdoxUpy6yFUSeCWWYe4HJn5CVlO/w7vzwwX7R3I9LVJvj1dr/zmV8A6zqJJ2AHKbcocEue9tgRRXcCBS2wbNzZSH365DWIfp2YVNawSFtBawcmpjVAlK6Zl23xxMo67TMjolVN6FspE7HIkl2TwQsX2Y1faXBwLJBIybcSx7n5Uv5QcRiUuEynLPC3qxLZxYyP14ZETMCoZq6GSCBiVLMEq0SSnPluV0IiVrFT9gro0W5MLUIFZFuhTq/CYDcKiaXIs3eYUYcd32teKWAqUkibLP97M0nk3VTiDg0os+1NuEFhfk23jxoZKJT8AqaSjmkpeDQJSyQasEg2QqsS/uuq7b2p3ZkwW90R1MuTA7k2F55HKW/wRSK+5hAMv2ux7vSgEJtpKBo940sebiJpE9UnkoBKP3RlUl3G+G9vGjY3UK/+BqaT4+HHxnmtYJUyhtTN4WUOEE5zn73MgCNfr/90C+D7Lou/PulJYUdG7fUQ0SfnviqwnvTocWRkMs92GTFi2poONyMQk6jW1SljHSiy+pjxADKuE8aMroZI3WCVMuUpd/EKlkloIVTLvUw2g7Ko+SwHGBor0P95aqa6XsOq0maT630HNKzY4THsuRNVamO8X9u9vxfsCSpVMplTJisZsGzc2AGMl6hOcKlgljKFV+mhZI7Yq+ZW68bHtP/23suJF/3TOTy9UGnz3Qkcv1dhAZDs1n9T1n0nDG332x/ZEnf9DG0XGqBc9LD6UYHM/RVVDg30VNTqjEiGpBMkKTpXjWCVMoVWQEalKIvoW/79pu2MQuYtkyLaJR11Unwi70TpXZRS5l8OBoq2KwHGPekV92qOcOiuY4v85qMT1QRbV1WCVMIVMG6wxKhkPUQRFWCrZybtK3lxXe4Fker2IDIhZTpbf5zaphNMb3R8zUkpyf6/CduL8N+y0lheVTkntR5VFxkUlF7BKikCkktNYJYyhpxK2sZIKE6gbf9NS4yUSz65DowGioIm57+q3tj0EVIZeF6SiYMxXlV3Uj0ZPvZ1P8SI8KoEBcIKDVcINA1DJ9RIv8ujw4DBAxpo0f8FPNcagLWBUSFLGqFMp0zU7SFmHKuYjPck67OqBVVJMqj2USsaiUYmDnMfe0Sv0YiVsF4PpqORapZKvkrc+6LcuieT4FFWznHUrM7m3ohtZ9MLfO1iX/LhIOlNFRjms4Hj8jlVSBNgenBIrOFAq6S8clXSktYLTgKVKrkygbry0SkxMzPp+5wuQsSZVkJzb0E3iijWd7UpXq5Q3XUJ1aRxUQp2ihlXCFDLoKQqVrHsmHJXQWgxmne1a4Rvqxq/11PJCkWvVU+egju5EhjRw+M8zTInSly9vRnUYJ4d6JZZYJcVAqkQtRQ1KJTdee2KVqJNbh2V/3PmeuvFBfbW+1N2mxo+LYBb3EUHmL3zQzEVrz8ivUh3GyWVUMolaJZ3ZNm5sAKpEM68ESCWTHLFK1GFdRY2OSvzalfFiee/PdmXqpxARGxRL/qnXuozPibzjeYpXcwi7Wj4Lp7q27VglDCmxMxgqcX75bqwSDbLYVpynM8EZt6nMl0vW3h6RbpAyIROXvqmfl1rWhdNRCevFYJf9lDuDtzdi27ixAacSjWxXqO18y3+PxCpRJ6Mfy3NwaKmkRdmvF1k1/iccefV3FsQlv+7gUfZ1I1WJ1Y9hVJcnJJWApahVQ1BkYPMFW8GohNZ2vvCpZuxav0NDJT6VdbWgnF5/YKZhyYRUFBw+UsVKpOOq5VcpVXKXtUq8fqXKfxPSBAcu2xVFFbXFD4SjElpHamVuzGbX+p1/qBt/elZnE4RLypzNAEkmYEhjF8+p5Wmq86Llb1dQtXJ3H7suNTGx/odqgw9WCWPItPtX1VSyD+jwiu2ThaMSWmWiC065alnxpAEdlRTvDC4DsUu173PQZ63SQxac/GUVc6rQEVKV2IynDA4IaTEYTCVv1VUCdKTWitlOglHJwUU0OiR9tiU7laz9g7rx+ylUrRBK+2mrA0mujxUAafTC11U9qGPQSFViO5ikuk6sEqYUns6nppKqPkAq2SoclTRdT6ND8ndbsVTJO+rGB1OqREVqpd3r+E8yScw9dNCVzn3TUAn7sKvdSMoLFVAVNbg9OGqxEtHO+1glTKGlkrT+XuxU0uYxdeODT9NoiJDn1by5BGLVjz3SsKeP7uiOkXxC3ox6VMJWJeKKdykvVUgq2QimkuJsV/dmY/AEhyk16Kgk+KY1O5W02kHd+Bg6KlEht/3Th8ckEzLu8Ou+5jTvWz6TMtuVtUokPagrewuo4jxcitrVYpWYdR8CcRBxaOh2rBJNYr93ElM3pYWKL6kbp6sSE5OoShfO6aH+iFaSTvy6z4a2T+XVF1O0Jz3MViVRnZZRXi1WCVM0JzhmTUdjlTCFlkqSDtegFSIoBaxKTAjLfc8OxJNcny9jpCErJuxkYlM6KmEXdhVn1zxOrVOsEqYUjkqKVRJVYyhWCVNoxUrIgh0dWCWpAatENYmtcNGXqgIzOGT+yC9aejMZl8kPUu4M9menEq+aowOprxirhPkzVl/Bibo0CquEKbRUEioNPvzgqDPzTql4iLrt+1R5JRoQ5te/vBurz5BJYsDYaW0tdOW2lkZSYzlFq1L/Doxa/HDzFu37H6BTIF9QYVcolajllZg3mYdVwhR6KgklEzIGT5ueyjT42ms8ddMU2a6lkNt2np+vN5eQSdsn7dGZJK8NSacbFO1KVzFXidh85twAWpsIhJRXcgxBFTXzmsOAVDJZOCqhlaL2vq8Tw32mtoli1nrbN9QNR2grfaQTyYwu84M4PWG6kHF3X5+1Yv5hkHSmrKLGWCWEy85JixJIWtctnHolyt5AKknfdbR4Bcet8XyYxIPFWCXakMYuf9y1NaMf6JbXqJs9vpfxRcstm284AbPwr5OkGwOb2aWyWLySNKRaZZGuesWsSVO7n0aH6zzVRw3h7AxW9v5pIYxKxnWwLmo1u/NzIJV8jVWincQVL9p4M2j9egR1m4f6sLhssVPDQQEwB/2WTZDvxlbs8mkk9XMo2maoErlF99cM7herhClkWMQe56JWsxthlTCGZqzkU4crlrzsekVC+/t13Y+6zZcV2Vy32HzvL0OBTg3XijT28u59NizrtChr51I1z0Ql4uyq/60KZHCzWCVMIcMGaahkFVYJU2jllagTv/7Hs5Z0W680jrI92bsZLC/d7dWadcjCr9J0n/q2TKOtRaSCqkQeWWdUOKM73d6A3WjK+FDa/QajkoJrVbyKWsUqYQGzUcn7To87N6BDHr1vGY1RieKbNmyvXTy92a6lSAYmirRdf1ZwZ3tdhSpZSvEOtBeDCWWFaU+ZHuSxvZ6AVHIORiVvTqurBGqCI6Cwa3c69UpKkJQV8acjrS8aHZVMuMP64omoapOW0g1F0odMWvF4pxPrIYkJpEoI10oTf4ghGd7B9jrsNjoYH2AqCTyurpLOw7FKmEKrilqpflcUvGno4E79y0dDJUn/sleJamBiUXNcGOzAhExYvuNoHrevIg2V0EqcJzxa7l7JYqfA5rpYJcxQqSQFq4QTtMpEl0aa7jtljxVlDSAaKzhJW7ioxISwqvbrDToJoHRRBA471oJhcmspaKiEzs5gd9sza5awyZVajFXCEDJwvLpKGmGVMKZqMtteStx2YY8HRT/RUcmAK9zugLBseB+sxBoZ9Py/XhyCJB9JrUepEurT+VIjGx+nrOKqne31cayEGWTmoRSrolYt8GIwc06fZN1NsiDf2ZWddX5maagk8eZDrvdgVmlKMkzt1/hzF/a4cByRFJJah0olZHI13U0obTp9f57tLujzgkmcB1RJe6wSTrTw5bCeSub7HKugqxwQDZUk7HfgfBNi6xo+udwjJoobETVag8wMUusEUHXdtuo678h134Nk9rVZFjWBuAtjQOkwFUglczVUAjXBEZBK2o7jVEwoPnfNGdsyD6kzaTmIsoWE/Z4AtyG5/mhYAcnlTlQfpqH1KrI8hbAkqXUpVXLgUtkvJ8xnHJkXxMGN52bC3IfhA6aS8B09XIpaze4MtQdHQCpxHJDG7REEH9g/M6+s7qKxBydhA4RKTMRu+769HMd+hCUN2fbtK3qFW2lArZLQ5WUnpJp6XtwRwGnGNpxJDRijRqWSZBCVZAw8W6wSt5ojYHYGCynsmn2RuryfbqRpJ6dcLyNSuZd6Z3DCM+4TnPfIXav9uIRkeRNkxpruVDFkBlCHXUNza5f14uxOE3I5fpCftgK7FQNH6fAFjEoC3rUoTuIGq6ImJJVIWvpwLpeqCBr+7VlzbdHKttT1SsBUopKJ886bK9hEKhOWv6vhxHK7jVaow66hAZ9peyHh/bD+9+viWNyDOjGTXLQ1Xh4BU8nSb/oWHwJtdnA1rlfCFMJqdgH3Hku88bKjjZaAZa+5lC9N6A+mEtUHa+2xZMbfQzL+hyftzEFXT2moJOt26ZcRYtfTv28L5ryxKPcR9/VsI0HpOesWxLeezP31enH9Yu/qg3EVNcaI2g8G6DIyYeGWqtNLDUx6Udd2hQm7foIw7/n7yliSyZWHbPu7igVwRhcNlWQ8KvUqU89a/6wI4b5DMWkow8J0RozS838wKsnZsteiqFX3t2OBzgwWkkpMWv8HUsM9KfNaP8+SP4Z0VDLHDvJuCMnaWkMy6S9+KAJ9p+0tewmKJXRU8meJ14iy97w4mU+r3qJuyIC/IqFvyGABU8myAW2LVSJqDnTQp7BUIqo4FKggWfrcBp6aG3NoTHASJ/YGviGizW/DaS5LyZYOntoLQY45DZWE/6LxCpFHtdlAheFiduyFjPsYNiqVLABRyZIfe2UXtQp3/LiADvpUYVbXH2ZDnDRowf4mGjLZSx12TfzRHvqG5DbVJh6gNcsJ35DSGiiVRAM6Kvmf2v8rrV+deh6uoHPJlEh9O2ULJW3exETi+MtKGJXc7KOmkg5+MCdUr9haetZfnrG5SJkFQRNp/sndlS2LP8h9qfNKEgeAq0Qlk95dR9P4WVGsOormN4OOSmYV/7t3y5+G0DjdhhbSwD/zhGMSE0nkdzAqWTexoppKXg2CUcn5v4SlEpHn7+ehNuonZYz7b9OnGu3EWRpFBv6+guCWCNerW5ZSrnKHvEGUf5Fal1IlmVM//q/YteLFQ5tDSHr9SwW57N8rQhpSg6nkxoYZxVtAxFXeAKnkibBUYiJe+9MysKIf8VmDfrnyYZZD9KAuyIhGJapv85UnyVTFB4K3IIpP0lHJTx/+VWlT590NrokkRZDRW1KEEygxKVTJnychVCK90X+tukrGw6hk/RQbYanERG57ZCHU72JoaPT2CY0qRKm6kGjvQ/nPqFRiIvZsNJqiImr67jzqdthAe1QiNt+59TLcAWFk2NPTbgKa3gCqZPPrO2oqOX0oBqDR0NBF94SmEhNieoPRcKdUSfNvbanV2101KrlP+b9JW66guifzavt1b/EL3OpF3QwbaKhkaT+Twi3y9UeFwxWBI4PnNtW1UbscolIJyARHunnSleLz4sQpL2FUsl54KlF98dZeWAyT4fcexdLj9aebdRhN+Y/oVKL6nD2cpzNPI3MKbyqRnmsoSrWpviOcZNCpVG1mvWsrmDTXj0gcYWIl0sW7H6qppMdjIJUIboJTiPLK7SFpcENtWfrdF81+9qf8R5QqIaY/1VlEOvyeNXUjbKBewZEmd3Xc92QVl0oCJYnf/izFW1CzGxO4xWDp4t/VVdLieyCVCC3s+hF5mynDQTJfPxK8ZHs+5T8pEKpEvHaVzq9q+Cln6kbYQKOKWsHQl4sgzyqVhr886CE0kYCqpLdZUatE3y3RAI0KbzG4mMhGqwNIkD6kDdIJTo8VOt874xSqCQ51XkmoFKaG5EcUi29WYXg2fLkATCXbH9ipqaTlfpZVdUuwQlCJ8xrI19YakykjQbqRHkkoUtQ+YnZJ99G9yFRCfdAnLLIMv6bWQikyr4FKJSCJ89Ltkx2LT8Mmel0IIgFaFVQVtVKk9vr2BEwxOnok3oTeg1NMdsMsne+NTiUNqI4fByVx4f8EtO1GA6jtfNL1T2yLi+gRbe4FAGysDA3dfCFSuCoxEU3vOGczZMhEN0hVUjdT53ujU0ktrrXp6EOGLJ7UDLACnHGhtIMpyChd9JVN8eoX8fCnZSCnPi6f5CnUJ/MeiWfjN1kgUqYB/M7gYrK78qWSRkv01H1kQoZPHS+BDklUpNofAzl+XLrtS+fiWhOEZ7/lIKGsdc8cBK0SExN5ZJNBm+EP49VG4kTQeiUaWHxGoZJvUamks35UQsad/76zvXBFUrg/4sg2zhVFVUhvzfIo3iNOOHXZDtFq6LL9vVHsPDcmxNk9vkyOAcsy0UEibOkjDSy68KWSxuv00HWhoYGjfuqbLdDVxg+k3nlxAuJLL3t+xqy4I4nW9daDqCR3wEMhi/4jqSmvT+hhYJI4B7C2awl4G5VIGuthVCILeP7FXrDzNowU9xn3DoCoZGgnNSUT1rV+AFl7yJrQBqvExMT7zp/zYJbEdIFSJa5UsRJkKumGXiUhCy/UsBH66NnEtNfk8xBRjUS/o2r5fYRXzYUg+YOBj3uBV/s0Skzb9BvNqOYyCxIBDvosC/5UUhO1ShIXTnoFXdzaGPHu+Ww5wNiZDP6nsnqqsOXBuyCZ80Fv+gp93PgJl5TZqwOpyn5wAuLM4LKgjJWgWsFBrBJZ0MqbTRzwyFlFVMqvuRCltTOf9VJXiWu1EdxOrfxI8NMUszKvXWCIrSpPOhwMuOmsJChV4nGmPI5KyLglWw5GCm0LsHYIi7dvCgBWB8hl9zSSrt06DE7n3mpoaNzo5gKr+qALucPOAduikS3mJG4ojyrphGwFhwxZ9njaFTxq/oAor8EoiJkIueKL6ertRrW/BlJsN963u0VZ1y5ACOWVBi8Xg6yNaQHo+HGtWPKmkiY3EHWXIvDpb20EVFGeAondLwtAzvlcOM1KvV3vvo8zAJoNVSxoaFnWtQsSscXeRz5LQHeyFpHwzBHZdVOqBFmspAYalUjTTu4+21rQiSSapLZ6ArKAQ66q7areruneLTAbMg9cRFTHwmgh3K7/NCwNRcgkYZItsqu2pAi7hhuZShJv7GjsKMZDkmK8+86BiLqGkqMvaZRoUM54BhPtWnxqelnXLly8K54ahSD/Nf4Bur72oEhRC/8K0U+GvCkClSStO9RIyPtMtWH+amAYxA+c1O+qRvhJ5PBkM0CzoaE5E+/gR1YapybXloMPTEK2IiqKaFKoknCd721MKiFDVk5OyaZ+a2Hh2vQpyM+b9GWKRpIOYTP1MsiG1vBDlfBamxbknk3HZwJvGQ75CtEkw4RPlRwEVokswb9/eyucklYSr3rDk0iA/pV+006jXcK5yyqQzPn01YIsbkcNEXV6zmbYgUncCxdkl2vZRbdKMu+hUkn35aCdFJoxuv5a/OtWCrHtL9tA+lf6YyWNhgmPbvNADtWK9n/rWsbFCx2RR/MBOZBV1mKOeSC7WJfPqWIliEZE8uqQKpHmD6tXAW/l0IJkxpPtMF3cf69Gw0R2szEgmfNx2zrjJZyyUHr2GxwDNzKJ/gJdDo/zxQKd741sBUfebDFYB5Hxywfsy8ZzG22YtvgRZM2WVEyeodEwYV51F0jmfMLyi+iSHYwewmzvjwfAyg+k/emG7Eqd/xem873RqeQqzI+lCkXQrtrT8SKAVgi3jod0P2GayKL/q6DZslnKcZDMeVngXzPKuHqMCpHtpcFQ51MGfY4uLJX3k+7DS5Flu8o7nofpHUXwsK19onAmiXYIl4ajQaYhSeF/lijAZdrune7JMU3I2HftBV8JQifylluTg0mIvk6viy4KYHNE95FeyFQiqnoAom9CE0/8sc8Li6QsRJ7HzoHkYCesq1Miuym11wDqo4zokDivJt6FoxOxdccNP0BUhymohU7aTt/qPhgJmUrEr34A6BpZ7qBOuJ5f2RCm1wcsIwE6OjRuUZMSnwRJhd0w6/mKRd858dM9xoPY6tWzFdwX9QM7o1OJ7T2+VJKykGu/kLLM+12FXq5cN0T2zl0goZLQ6JUdS2T/iZ2+XQ/StDT8Qh9+useYUFbs95zz0aqBjRGq5Inuy0OmEuLsLa79Entiw1t0ecDlAnFeLX+YU8KDhvQoWaHI5btzIE2TcTuqyvEclQrCrN13hzlWnsmsie6X13Gy7k8aulFJ37ucOiUx6PmUV63xkEQ3qa1eLIbZrp65o1fJiaRFneEwG87IYXXM8VI+NXLLjpMPxJAcejrjErpvjOcD3RmL6FTS8jmHLkkKGrZ7nxMOklBAuHYcmE5y6Odicl87lBw4uDUZC1TWeNFXuJo3LZR53V7e4PDbEHAQnUocftcdGEankl6+rDtElvZ8/x5bJR4TUyGOnLYS4rhgFZu/sCnZulm1uUEw+Q4Z31/HRe/oYb734tPFrA2eOxOdSuwmUagE1f4fcZ8RLLtDEb5q4lv7VCwSauTXdwfAZEomLWxQ6jfF9PSvmTAqiZvXzQvPcOhBRPX6/OX5dHYdn3MVpUp0/2plfIloyV/cdhirzgjJHTG5mhMeDtPC7GBECEw4I27421IbwVJ79s8B2gS/+Os2eCsmXeQebTpPiVi1OTA6UaFQyD4hpcHiV+jqCzq81r3xMGMjKpW0vJ8g00ChhkwLCkVsweaT31xMsXHHv2C0ELeeCrPGEhoaM7pHqd0bkhlPFgPtDgm7f9UFDzPpI8quePTRX3+P91k9ynfV4ZMLks+du7xt24kTPxw4sOj8ihXbF29WsfzGe9atW7LuxpJly5YtWbJucEV0Xx2HZ3yppOKkkc/9D/v7P5+vwtd3xLB5o4YOWa1iyOhRI33nP1+1yv/wyZUL3nPr1oKT/iN9fp08rZkDnlTTRl5xfw7MVz00aFyfUqfVyB9u/AGomnHC4o2tcBCdGUpvCy+bSM+Hd9q06tO27d6WLa9f33S2R/uU03teveqwb9++qs137jyqomPHaqq/t9Wrz6xevYU3OmHbbdBdJz/jP0SxEiLqztq1a9usXXvnyhV7+4cP7e0cPB1VRDpGRnra9bZ/WOHOnbUzVFRU0adPr4ptHtpYmEnwTxcDvJuN052ASJ/wxw6lZiAix34roU5ZCJ57FSfPc4aQFyL5gPI9qR9xN/X29jZFGRigVAmqFRzVJxFVw5gPyFv/lAy1PX3dfudSH0OxTb1hQOtDoYnJ39nhaatRQ6USZEUGMMhxqzw3iwT6qp94EVVK/WKrSz6cEqbUIAsmdDDDLjFmsErKLaLe/RaCVExUIfOtJyo9t3Sr+rgAqsJX/Pyfp+N1OWPGHqukvGKx8yXUF52MHd9cyzuYbtqfAzWDkuX+exYfQ27M2G+gWMFBFyvBoOXKF+ehgqJk5gZte3dTW90De4vQEP+LjnhYYsTY76dQCcJq9xiEEGbV1oDVF5YuP6Wt/KrEs98CiII871EEDDyKc0uMGPs5FCs4qLJdMWiRPzy2UkoCfc1lC/tpG5yKnBuNglptDiWTDryoiHNLjBf7iVgl5RHC7O2hQKhveahsWENtpx6KLXbO1X1gASOC/JqgO6UFg5qHNylUgirbFYMU7zZ/XQbKRFWhuNZRW3lhwv366xtwh7QkLprc1h1PcYwV+x91f+CwSowSuWftUUCFSlTI8vv31JpQKLKbegss7hoamjaqNt6oabRQquQYVokRYrHv1yyYLcGFxK8oIxVV7Fx/JFTqSmhhntrAna44T81IeTgAq6Qc8vC3bYBHzabNa2qpdeJBZM+M0H34CTMSVkzuiYsNGClYJeUQkVeT42Fwg5LQrAE9tZ/ERHinfANyrNZHpCEjfvbEe7OME6yS8ofIIuXZerBjZgtPLfvFsYzvt6TtA8C4q4qCQzMt8BTHKHn4N1ZJOYOIqjjVH2rHbiFpQ2Z6lLGwQjj+uSCeBHwv2Ypn1//f3n0GNHV9AQBvEpaCuOqoo46q7PEShnvLcNa9tWqtGxyoKCIjj7BxC1ESIMkVqgkqwwEOVKAIjjoRBw4QlSq4qIqif3C0fytTk7z7kvP70A/9Iu/e927uPffcczVgF4eOYChROTKHljPlVHP1Aw+Xgcyqvm67Zg+L5LiU8vHxPrVgEJzFoSO9moYS2AymGbZ2x9n5UUh+HzeZ8XdolWsOjUYuHnJd4fASpg0xgGkJDcFQomKIsIGH3bhIft82iviledXvgLTBPHmGZXwqbiYZ+6MOjCX0U+NQAonztELYbx06LV6enzaZOHtX1fV0+aF9XSOQPP89xAsY0y8XMtVo5/5pOIOjQgim3g+zEuW74lgz36bqD5uwOpKZJNdgiY+PKG7MDbgwjXbuj4KhRHUQMoc2y7Pkd/amHIqc3qZeNake9oNex8npMpx/RAVk9oPaJXRT41ACsRIa4ev0GxMgQvL8rCVJr7pVtzsrCx0mt7LznyBR1pgWelDqlV70NsFQojJkxh32Jstz86Zc5M3NxdVVEWFYtZ8VL99/sqJ2SX7Zls5WkPdKJ3rLKLpSC8idzLDnu2R5bt5UfNQJ49prVzs9kOW9XivnYEk5cdKkM53gaB+d3KqpICMMJXTBMG633EPOcxIfSeBz/eoP2LGNrxfKdzv4wz8c7nbtpRWMJfRRPLKG68ch25UmODrNx5ZKkJy/aOGUIcb8av9dwqJjpjzT9P8RcWXZScMq02wBbgzmVF/nF2YlNMEsbj3WA8n9ey7deMSihqkBx/apn7z3cN6Lct/YokFN/zrAhe616kvXJP6tTfWfCGrB3rn3TPnVcv2HOPrN1hrvac5tLr+685/hlU5YkpdayV1eAENG+wXV9ibcg0MHbJnztmlyrHX0CYp/9r1Wjf+6xYlDSUj+/3jFRo7nuuff22jCTg4dhM4Lr7Y3E+F2PuwR9rq3f54iz1pHn/ACnsfa1/jvcwyO35R3asmnP8D76rndjetbsmFmgj2ni9VfZOI3AoYSvBHsVP0hG2/K96j/B4i7ekhtipppNlqRIP9//QMy4cLpFoPsKq/iBjBiPL+mocSU6j8RVIeQmmaf+SVRvimunz5j3xU/mdfib5BaPw2W67mfz/4Iccr0wx1szC0h/oo3k7+rH0qS/oKhBGdsi/vfvw4p4iFFfMWSuOddqj4U/C+C1bFMrqeRPyf2Ovjrm5O2ppYQM8EYYXSt+rBrwjETWKZii2Fv8nL3uTXxCpoScF2H1Ks+qeQjdvFhd8X8Ce+hSL8rd0aUz0xq3EwCFGFYOLSaUn1KQJTr90ZwYxqeCIZVWqt9hUnyznD95wtOcWlUyzqrGu3WK+Zv+PSniHzdlm8+e8scJiYYIuwN+m0MFqKaerG04Gkj01r9NgGlYlgUL94/KUsBe8AfSQp2W9fyqD9b/7W3wqIlFRCP639q75KzDppwQzlu+KbNM5Nrd7Oab+HdrpB0iBl+anGPzZkZXAlS2NfrvbypRm273bj3FcWkqf3750iE/utGb2lkHcaHWTJGODr3CuuS7Cycdbuq+wuA8hF8VmijoU8K/BSUzvGe+Opwm1r/gGg0elKqwL/lAx43MWR73zRNmCNjg21yZl1df0NKVwyCvX1c8K0ce7us9o1U6JpCcLR/zZmunzAMt7gpbqn1D55w7fQ57Wy1YZWDA4I58NjBr0hD4AW8GlBz5iNQPCLMud2eaQE1h7m+SZT7Tuc6fLGpu371U+jf8wHixV99drinoxXMTChHGN9z9fyqXzMyYdIiuFWAcmwNhyZ/zwoKV0wqyb88jx4xq0Nvy4zmu0kU/Ce9h0hx/tEzL+sxYTOHUgzrYYXhX9/h8VMXp8JgQiWCY573uMw9gvz6TqwdsdtwwzqtaO2PHCpV9B/1kUSYP/bxYE14EymksevOt5WWEB98Wh9KgVOIadR0VLBQguTzTVbDY3bXupUdYtzaXaD4P+sjUcrk3/o2dJLCaEIRVrs6bdtUKvxBNxhLKEKwjW//Nc5dwbuuFcjIiX3rWFmVMD/7LkEhJZAq/QMFgb88b9FZGwYTKrCt98ljv44sXQTVkCjBsbLpuzc4Xhmfqzhgz8C6/nl83evfsniuKxTlMXFeE4NUuHtL6RiXJkXKp6PjnzhD9ykbwQ8L7X7RVWGH+T9Dxo/vV+fiEmzzXc+TFZno8t8/UuQVnPlnx62aMkifVCrLxhly+zmLvHAJckyUipCl6jZe8mJNkXJWEBHBO53rvoyVGf840xcp5Q/8gOSmXDg0/LaNmQxKIymPZbODcqyNw3NrBykmysPmaOqdXfBulUekAuobVYLMOXREq+4fJ2HZYISiyqlVJcovZsyCHsVWEL9TFtMhOXJ9C1HK3NpnQoJvw7ZwOLJgY4GfErJJPxBM3fJ1V/Zqvj3kiZT1V36AxJ4X9i5pct8KYiZKkbo0Wc6/ZyhxqQbVT6Ue+BaG3Re+K/AUISTfLqyyayXRx/RrU/HoSzKbYavlFJCrw58rzCkc8+diGy2os6Z4mo+95N+/4UPCqH4uNVA+kKRve1DoIZDIvwerwPM819Ps675Kwvzl6CwFXNVX018ckbj6xeazBhpwz4WCmT2PQPLvPyQYDmOJYhEMqUnDIXsL/SMUnSX///0aEbK5y9cel+M7tZyggJ+tmv9obuLqvQe6OdnDWKJIsi07FNK5KON7OAahUFKdzr03uaZEKCfY+pFox6aXX3/vN9N2aYZImX/uR4gXkTV1WctO9ZiwylEYy+8VcP/je7w1+nDYW2EYGtaN+ryenq/wc3ufI5PGtQn9+v0QhlWHTE+lDn2fIEl44IxHP3Y2hZCJgvC7X0GK6j3eijSqH09VVQwk17e7rg2XKKz3KhdR+MaW9Q3LBLbh9UJlR14/Qjxu1vSfOzqwIMtEEfjdbyqwPk7EQ8ihVwSCb67/uCzOO0q5MxKfil3+V401v+ln3XLwtbXKj7x+JC4KPDpisQHUWVOArdMU2a0ofj6L6idUQRyT7EV7YzwpiDmQRRNa1//GCJhd/2fKqjbwJUT63iwbvvh+LSvlg1rj7FPwMdKcs1Q/oqohLOt127K9xEMh9+3VAAljRnT+1jxmme7uC1zl/+3/iljz4kB2bhhcmiNPlm/9kGK7jbeqHkS55Emm5dh8VEj1VyYqjGTt6J+0v7k/mTav4xA1D/Ae4gmDNy7KdrKHNBO5IQatUniXioanUv2YqoNg2Bt2+P2KEvPRPhc+voXJt59mYbOObE+iZBfnEyT0CBm98KdbWnBoWE5yxyjhIGl+e8gukQ8238qm/+GH7gKKPkPEdV1iI5erGOu1Xa+IrMi6iMpa92DYbT04miMX/N4eSugz3jRT6C05IDjmxf3nnwv2Ulolsv9AERnzOsknii6zGRZEabikAs939d4DjQ00YTD5ZkRuiVLeysh2llQ/Kv0RfAvd9G3noqmakZSLiht1wlxOT6Mx8PcgynaEP0K8SL8L7xaWDyZSWOZ8G1YrgXL6bEYx1Y9KdwQn1SH9wLuY0igSKafPvsTLWX7bVF7fHNvqyMYApSfFfEEi8CjZvvCnrWYQM/kmL2OU1GGCw5Bc8k3YLOuXxx+U+AsVette9ZDX+Mv15Vcbj6HddpYXhY/zD6H/6ncLzhpaQEDv6zFnhyupt9CFS1Q/LK2xw2xa7ruQQm2gEhWc6SLPqALD4fGkeBzGEh+eX+Ho690dNCHP5GvZ5CNldVb4A6iH99XYqcVn34wPUHIhw/+Kynq9S741I+zThhcWUbol/BGSCLOmzF7Y474W3HTxVSyXKS/vGiU2gk76OnxNhybDM296iZHSeqsyUYEuTezkG09ga2b/HCOg9rE+kQg9Tj0Zlq6rwYf3tO5CQ5TYVeLRUDX6KxB8+/onliw/n6Ck8s9VkmSd628i7yNwDKtGc9ZQkf5fGTIiKWbv9YYmckmbUS/snUq4w+1fSY0hRF53HO2GB5YHlVJRKugzqHRWKx35H6ZlmDY5nU9Vlsx/ITIiYPKmywPqQTmTOrKQ510VNSPHwiZOHRH2Ri+H7j2VSCJldlRleF7rt+gp4lg+3+n7F/64jCUVR3MCVj5vk6cDdzjVBaepkn/qBLtgsK8LhobRiaEuIQli6gOTZNGqnbZfV2G+JpzcdkeVeslWDUhJkuu1t0aWcM6v9uz2IuV2EpoNNaNrj+Cbp205l8ylPomrIl/+/KPsb6t2VDWOcYuZyspJqBWeIHH9vI66kGZSW0TsQWX3UbQh1Q9NH2wLm+avgr3wCEmKgu421lZY1THZrSHTsNgS/gfyPT/2TH8bK8imrxXOcaUXvEi4DZPGWiE42nlt5qwPVNpde9XjZT24UU+B9QstbY5PKUJUP+VnkPfN5ZubbIU0k9pIfab0/hGdgTS12pBp2dxYuj5AuRdSVI3nt6K5tUJ7zlL3z1VCqh/zcwhFBpXtTjfUgGVOTdhdEpTfPytgD6dGBCdM9+zfE/2VdmlnDRCv9FkLI8XeQMJmOi/8BZeR8xMywtNtzO4j1iyoJ109WVsKeuemDswXq8eWaXVpv//omgQ8giTlI0nk2sxWBoq+0Y6w7LJlpS8OEebPRHqEPFg0oJ4Ubrqojt1GCromfCBMF6tDcDT1ms47GlyKy0DigyICx7QuVkL+p7S494wUbPJL/iFJnHSs2VYtuBauGsVTKegY1A/6pBoMDaPuS16sCcfisOwHwjUPmukqJV/L0rhV5g6Kjxl9CfG8o8fubHLLAs4MV2mXOxU98wjqRVeFkFlYX7rnEpIkJhEVXVMZUlDwe0dj5ZxJITjW/UbHCTELmJS3ATdp9YOFL6GaSVU4rTyp6JcNJlQ/OKbYUq37jR+fnpolwGiSzys69Vf3XKXVPeUY3x4ZLERUP/UXSG5i4ezLXc0g/7VSrD8oKat54T7VD44lghGm+/bvzJAcAUZrGx8yYd2fAzWV+GPM0W44b0o81Y9dGW7O1Nf9GpjBXk4lTFdQ0iXJA6h+cCxZFPfYmelWGoUo6ZSqJK0/3kCpRx0Ihkbe8RkpmDVDBSQRBI1b2szWFFLWvmA4kZIuyepI9YPjx9J0UIczmW5JWJy2+RfPc9wWG0VvAv8Xwdra99dk/AIm5YOJODzw2dMOW+HSnP+yvUBJh3gtgjniZwh+qk37PTODvCmsI18ZFJU489595RcBImS5Z3+Pprw6S6Ukgqzph2+Hwhv8uRNrKOmNyMNwH85nOHaN908uFWIUa/1AHFDWXDmbwP9B8M0GnFmH1+m+f0i8rm7YeaRYg4J2wddPlOwF+5APoM7A/5GZdNt2JzoeUdIX1UARGad7WjOpmcoTYY7bZiTiOZYglBCTufmIrgYcGf4HRUOJTyYklvyDkerY9o9VXvh9NDyv1c87OlGXlMU3abEiUYRfu3xABh16HJtrD9WkP0pPpqYfxlpR/eSYIBjM3AFnJqbgtPv7EZmwbl62GYUZWQRfJ31uBoX3mVYLiXxvPln40hpK039w4io1/bBBi+onxwOb5dRtSVmyQIKo6YeqIZ7vrEU29tTO4Plana+PT5EgqhujcqTQv2DM5rdbtWA3p1y3DGp6AWYlFdhS45cLXS4kRiJqeqEaZPz52b30qL9nRBbaemMQlbeaVo+XtPrFgh4GEDP57rvs89R0QZk51U+OAZndwL6nT6VQfNlepZDn5J/POmFx6FLryJxTfnhuC78njHkwpGsuxdM3DHR1o6b9yzSpfnKqEfzU4qYjp5RS0/7V43ETZx7vjEnhML5ZWssn0QK8Evf+DxmRuO63H2Jz1b00Ut5qatpf3YcSQqZ56+2bcTk4ndr7h8jv1N32xfZ4jCTly0D70NtLp6ZwMQ2/lg8m4XHr57TpaqLe1aQbrKKm9c+p92YwO8wwffOhglIMYwCIx03+ddsAE5wuk2Kb5/V2Oa/UOyTrRhLv/suxXs6a6jwxMVhJSdOjMRZUPzmV2Jr6l2cX+OEYJPGRlIa8PqmL2dKfzXRKHzFjRwSiunWqgiSC5Fnzb99KVd/BpN5DSlpesk+NC0VztBucnDs9JwrHCTsSRpcNa0hlMknlCI65c/vnJYnYVKj8AhnleXPM8ca6mESYlM9sLCXtHnlMXc/gEDLzrTcOz4qOx67moM/74j6ujzroYfnTSsi00had2xGB4ZrwIzKqNMRlSJ6WmtZstBhNSdfEL8TxbVUChn3okfnP3ONx/HVFkvA1L+51NsM24Upq3eTvab5UN1M1UIT/lOf9nC3wWh0qif0eSm5+S2qrlq39HUfn0pJz0Qk4btv4oMiAmWfSjZVdmqQOCI6WTatR63yxbL73EC88aNxfTe9bqeEqh3OZghu1fHx2/ET1g1OBZX3isUthkgTHIIkPmbLyWC/HVLwLl7I52gO33FnjhfFgIvHOWD4svX6Y2k272R3XUtHg0Z2ofnCl41sYd9syerWvGMuBRBLvvvxemh3+dQYJhnne5pVemFxZWCleeMbGvraa2DelvHU+SEVrTzSk+rmVjTAfuO1OoAjPnE1Eek2Zv4smpdQZYYa3n07yxHdi4sOLyCn5rXWalppNTHQpKe66TL1O8zFY9S5tOxRdimUiSfnaxnfq3I4GqbRZ37PNO//warU3iahuuCrxBHHjH7VzNMPiEJOyaI+ioqVbq9NeMGFp/dPQB4UpWK5sfJAoKWR7yzRaBQoJjln28PX54Xi26AfCwIdneuiGqdHOsP0QpPxm9oql04v7bQipmW3L2QWYVilF4vjoO7uztej2wrOZ9V+OmJYYiWerVkASbtCLoZ3qh9Fj2SgHjG4C5TfzmlB1aV6Cr3H/xpySUkzLCpIRWdNHNK5PUfXWb0HIzJ1vHJ7mz8U3ZQ1xU0692nJCbcqsEU4UlBmYpS5Fohkauk0uHg0qwjNGyItMnDan1yB8c9Kqx9FybP2HaxKeW2LvIW6W6+nLDU3w3xiTC/u9Sr/qU7yfQ/VTKwXBMOu65V2ML4458h+CJLP7xOoo/5IbuWFo5t17tzoJ47pIPmL/qa/7OWqrxWDC6OWh7OZNSleHhv2Or2nQcemUJEouZa6ZxNctc9glE3oP6mxLk9jL72JKcTyH8AESR+yYObeZo5kaDCaE8qsfuRlR/dCKR3DM9Zq8KYuOkCBlN29tiHyDM5ekG7Fov4xnhDmdWPJrdAK+g4mPOCF55ojFxRqqv5mjeUzJi01yLpPqZ1Y0gq+h22RnZrQnJSecaoJE3lc3nDnioEnvKclHBCv05c5nARheVv4PXnxG5sLYXJXPgOA3Eiq1XVGWrcqf5eOYNlxyJ8MX092FKP9fRjQxVJ3CGoS9XrNH0z3wjG1/IEqZ8scPsTpMFX/zU88rdVoiGU39lQgKRcisHNv+cQrTgYSMylo5srmjShXEJKR2g1psv+CJaVjK532VtfyJr9t0NcGsPJ2cEX2UOi1xb6DSa0Y2M7fzjb8eBgqwHElIYcCUTT8MzlW1n0e21LTr9RWB3jgPJsK10/fccNaSqnLOmrEyA6+iUaq8ZGRY2jn2/HlGULwEKbFNa4uMKo150KerCZOtem8zm2l8aeGGHKqbuDqS8LUPn/a30VKJEFXlZI+Ud86M3GGreq/xv7Q6t9o3eYc3nvsJZPiajUOyTVRtRvIJX0O3418z/DE9M1kBSUoPrjjcKy+XhunFtUMM9kfKak3hC9WdlFiaxPZZtnKtt0RprVknUdFlO4/oWqhMtPVLRNj9ZqNK/DG8N/UTxPNec3R/L30dVR1MWGOVdccIcmtM9cMqCCG102+xaXIWnifMkCghaOLSDrfCVHggeY9h2Paduzee+cUfiRMnX+tgoKLH/IheV5XUjEIVrVRCMMJ0+7+OQUpqxjpCPG7OxHkv6+F0TZaiSM0G/bjsQgKeVS/fQ+LwuIeHO3SxUsnBxOS0kvYbYnap4kKdYFg49zw2PV+IlNOKdUQK4zYMfWlgofrplhUIy9zYvsum+nNJRHXDV0lUGjz2rxvO2paqF//mdNqBlNGEkcdV8K5ggqN1/+TTWdFeWO5EIjIqZ/3+kwaqkdpaO3xt/d6nJ+McM/Ehi86Xnem41Yqmp7KrwdqrjGgJz9VY9SYlfA2HHrt/zYjHdEYt8gvZ3mpQquq1e3UIdqpj29khiVieW3gPITL8aubuHve1LFWta2KVUbbk/FuVi/oxWMYDrh/K8Ma0/rMkPOjc0MFmalaw+LuKfsnVb/77qVIsr1P9gMf1Kzg3r5++DpP2hyo/o7Ff8VUfIoeq2qXjbHujXVtcVnngef0kknjHPTtz1lpD/UaS7yoKEOjE3tsYXCRBVPdDlRA3KXjco15pplJVipkQDtORghsuqkzFRhKCb9X53qbJ/kJMB5II/6nP2zWgVQFo+ZLWO7FzVj6e2/Mf8eKDZh6+YWOuSpEsTnOuglstqJMKDb3fVZxuN2g6d2qAslJy6irKf8rpe7HaqhfXqz2CYWn4/bFJORgnwPqQoqKMsjMd71up0GAi3ajQIBUqba5S82yGhWH65jtBAglSZKt9NUlp4fZ7DY1V+yBqLcjsOrcZHVOKczUTMtIvZvnuHqpUG6lBiSIrPiS8U6HkNIJhb9xo20a3BExfUXFR0LmFl+qr0y0sVWFL7Tptyczn4nw1KBmVcP7c7lgdlUkhlN0IRAprLfEdFTrGR3CsnFs8WOOLaX1ixEv85WKj+iz1DZJ8hmAZHXkzay2mo/5HUX6rT7fqbK4q34jshxRFtZTIVVdlXmyCo9259ZyJObhW7RL7lTzvZ6Oh7kubfxH81Ps39qwMiEBUd03VEC9i7Yz9J/WsVCQKYLZJUZ+HW2NVGW8JZm5e80fr4+LxHEmQ2DPkwaJOOuocbf1S+WDi3PpVSFIklnttH5QPJsl3ljRyYqrEby7hUKCYDySplYqUFmBbWjnemDt9hxDTlDSxV/KsP084qWpJkq9H8MNu9XuVrOhdym8jjg+e3drZQiU6j91DIUeEuX1VJaOEZXDy9WQPLp4DiY+PJGX9zhOhar9tUzmpTl6r2W4CnLNMyIgdE/Y3dZBR3VTywEmPkXtT89b0U4m2+Y5h7thrzgR3bPMnydJJ+zvc14S1TVXYdt13/xqcgOWxy494XgfHDG1oQuMrE//BPFEg56LRURd6qsScRGbm2G7pTHc8yz+Xk3is2967sxoet6kLWW63eePd4/EsmPlR/IU/2uupwmEHfvpDue5xkiFNVOAGLYLPMmwyfxq+hUNFRXFPeqeZq0TIToEIfpjhyyUbguIxrrPGEwQ8HJ5ubE//ykiEyTtvJLd2iQrJo39GMMHXMHy5eWyQANPaXO+D/wdidSzp//YpXsUNrAuWByfge2YYiUoLX11uWJ9F+5gXUewit3Jg5Hn6x0kIvoVh+rAnIX6YJjkhSXj+uL9V6bo9xaq4hfXs5l+Dca0wUyEiYOrI1nkqcBJTujsHyaVFeFOy6T+yMusNWLS9MAnTgcQHRflPfX3jvgbV7UQrnNzGF2fmYxv3KsfLWv+0iUMq7UMmzLdX5BEViF9fTPtxlWOW1u75ukRco/5kREqIyxBbFqxs6oTgWDjcXjohH9dj3RWrnKI1v/7Zw4H2FXkZoUs9vrUxJDd/NKV5M5QvrG3a7xkfJ8A0SscT5kwZ1Ts7lP6rauXjaDXo+fyCF77VTFBk4gWXx93q29P855hdf2fKtzWyqORkGL1HEoJvH3r2zbhkLzyP7SFJRMqF7Zdj64WpVkE/ZSE4Vvq9T1/xprofq0Zyc0o2tbY1p/sqh9ntUOnXDyaiwNehdG8Bqc7A65kZRbguqCWeq14tumSsMifTlY9gmsQueXHQG9ceLv+1EATOfHrSRovmexecer0men3VmRwUFbjxrRm9fyrZ9rmxLUdOSeJhOgEW+a169fhEqIpe8qYk5fNO68bDHwYV4Xk2sxwp9j147s/benS/n5VtsvNg3S8TQWTRs5M0r7zAYDl1avN85VpMY/xkpKfbmKENjWgfk6Meg2XUZP+kRHzPDJMi74zl27pqy2heSprQan+qtE6tzCuK2d+A5llpbI55g7an1+XgWUi+/Jcq/uqGYY3qMWFGIg98za39Lz7EtvxMuaikKxu3DHCi+zFNvl3s86Ba51SI48acrUf3W9oZWg16jVyZJcT05SLDb+693t2B7lNefBAcK5ueeybmYHwBV5RHyavH3XXp3udEmEHfzDW+3Op/opFY4FuQ2WKQFc2Hzu9k2mnNf56ZHC9BSnlL6orndfDFgiO6sLSRJ4LQ6NLm1bocLqaBsYqoQdKqV70b0r8SjUxLr+nwhxmJ4ZU3dVRCTvTkfb1PGGnSfluSb6HXdN6MfCGm75QkPH/G07NGYXR/oTDEqd//N3dcU5p9Kq4GjXQb1c+A7lP+CowwU5sTQzetz8iJF0ZGRkVGRgi9izzzQzbsO9Ouk55JqiqUySD4Wp3+nOgnwrU8Oc+r4HUPY5rvDGKKkGoP6vVHYYIEUd3LVSHDA6Zd6+mcqgohMoJhmZrr3K3dwov7f14678yB1u3T9Yu1U5kcmgeXPyLsjQds2xjjhWk1CyTxdj3Wb5C2VCUaG0cyu9hFLqs9o0hEdV9XgfTOGDv/7S1NVRhMPmBwODKZjE/zGNB/EDLthpc3nfLHtPwn4nmGPLgcqwMDiSIRdt2WLA9JqXsGhLLwis6PGdqtHt03c1Qa32pr/2NTEzGNkfiIvaLLhnUypfkuO/7YUruufUYX+GE7mJBRnqvuttbXsYTBBEsEJ8z69l/rszCt/4zE8UHj/uzupFIX3uOKoVG/U8tRIaW4lkYqX+fGTZjTPE1bCoMJdgiGhsNPwzIzEjA9tieKv3pneJNilbrtHmeEZe6AoS/WxOP5u1JOEh8382lTgzD4ZcEMIdPuNHRjiB+eGWmIFAbOeNpUL1W1IlOYk9Y/8veGaEyznSvEZ5xbeMnYHsYSnBAaet/vcfXEtCIJKdwx8XUv51SYzCpV+YpX9/b88e7YHhrmRfkWvrrX0AkuhsYGm1X/5YINV73xnMyWDyTT5/wIy2IqcDSLO86ZlhWBacik/N3wdx3ZVl9HNS4GpT22VFv/8vYQTKuP8yJSTt1tnWZK+2RpmmJYOPacc0XO10LJERKunXisn6MKFJOmPyLM4ORvqxNxPcZVVLC9ZZ62KmQR0xQhtRv8+EFMPKL6TagCkhStGbe0X5o2BOSpJbMbdOPi2HxMMwhEnqv2PT5hrAo3PtIXwbB3arR7bDS2lfTIqISMFYdvdDGDwxSUIWTmjv32zzpfKkFUvw6VQCLPgo33BoRqqE6GNF2xmcbpf03zqOFcPHWQJNz92fDG9S1pf5KWnggGK/TlmfEBQgmi+lWoRMUdWUd3N9Ske90sFcEPM2wyb0oCluG0CqTIO3jM4071oMgvBQiZTva2c2uKJIjq16BS4pyHu9MN7aluJfAJ36pBu+dTEnCdmPj4cHNKXg0ZYALxeSUj7I27XZ99KpGLqH4DKiVJXPlz+/uQ2ooVdmrevY1upXimQ1cQ+U973TwvFwYTJWJb2nVtuWyKB6ZvhcTzyt4+eVqwv4edsAbbjuYLJIjqN6QqvJTpS5vqaXJgMFEOgmOu1/H1KlwXvhJh1rhhAzXhbcAQwz634eMXQbgW6qw4qhU3bt5JZ6hnowxsS1PbdsfW54djedwGSQRBGzY3tg6DKQmmWIbpO2e5h2N6xqJiSnuw7O+TNhawmaNgBN/KtsW1mcleWF4ljsTxV+/8vbiY9rc6qjSZbs9H6wOiqH5ZqsTzupm5Od0wjOp2Um0E0+jsiIlx4VT3duWQIGjcvI63NKhuJVA9hqZes1GFftiWkyYlRTefXB+QC8f8FIbN1Bk4ZEw0prWNSGHOtLmLjaDMHv4YzNzBLbeHpGC6/1dxcitp1b7LA4zhZVIItswsr83vJXj2P+JxPVyft3PUgtM2tMBm1svus93NW4Rp7N7HJyLA9W4bR3MZDCZyx7ew7rF0fSCWl9sgMioh+MmQznaQrEgbhDT30kKXK/FUvztVIiPWzhzR8b4VJCfJGd+4+7ZDGfF4JitKvG5m7uxhBJ1OJwQjLHTAkkMxXlhuBfpU7AaWXnmx+e19TZjpypGlSdc+2wsTI0lEdf9+CYlKb/565raeOVzbSTME397oxPGja3wxTXX04XH9Qt4tPGGtATvD8kHItGzbLpuag2W4lcf1PL9h/tv7sKilJQbTJHvbrBQSUf0eVYGMKo3Z3spWC36m5EJab/GxkppuTqcEQkhwNfN4dyMN6Gq6YrN0e2zODML0EraKjcGAlXPa5uVaUt1QtEdoFL/9e4a7N9U9WilJ0uRll7sXa0JGGo0RDAuHHhfvBPviejcs6X11/KPmg01hZ/hb8M31Ou58cTAcx6WNT2TA5FE/xJqEwUKW7ghp/e4XZ2b44lkeuCIAGzB+6ckGdlBp/GsxmPUaLbgT7Y1jB5ORvm4urRw1obKRSmBbmnb+4UlgBKL6vaoc4kX6Tbp2474FzH+/BsE3y7t3KAjPg1coYo1L6wYQWVcdjDCjS71nF3hh+br5VCQcuM9c2rMB/HbVFcFgGTXacnpyFhfDKQnihUePedzQiQW9qkrY9rkvt7mE4HtreVHwrDdNHGBmUhcEW8MhfeGryQE45raWDyRxMw53NISQuurhmHVeeCjGLxLD1+49UfCTx51MIP5aa4ywegOujzmfgGUaIk+QM3lZr1sa0J0qiGAwtfVbbCr0wHEyXA5xU1bdbTXQzhLODNcCwQ8zOrFgzM2iSDy3bbImHWtmC7F0lUXY1+v6w2/rEvG8thxJvN3HX2s2yA4yImtC8FmhjZc8uZmCZcoQGeV9YVkbfRN7+FFQZRzTrr23h5RiOZb4+EiKrh4dsVgX6vTVgGPXdcvGGE88p5c+guix27JN4XSVyuNrZ297stoTz7M5iOcd/OJAxckcqpsJXwTH4n77Y+t8SUR1b1WGJwgc//S2EURb1UD5Krv+rkXvVvthmbSGeNzEQpfrL3UtYGZSOXbqrSM7VwR5YxltlcTHTVj6vTMc+FYXFbH/A4eiE7AcTHx4EX6ntg+JNYWYXSXYMq3YoU9iSnE8CYHEgqyVc/p1MYM7BdQJs/6uLXsPCqh++6rA9V+1rLkjXJLyBULjfs/f12G6oy/Of7i0n602HP9VLwTb3vjEgl+jvbEMwCJehPu4pzccTWVUtxNW2PahR87MChKQiOoOqoQwbvzSZoNgLqmGCAbT8O3+mVfxvJkaiX2DN8xr30XbEn7jPqqoP9NndkwCjmsbMj5w+utmDbRkcPZBPTHCjH46PDkJzywnJOH6r3/aUReuGX6P4GvqtR9dUIrjOSpSVFTyc38DqCOgxgiOuc3bM8+ysLzErSLNJP/hiMUGTKqbCQMcLefmr6djmlyYsn5e061WsGuj3giZpk37w+vXYnltSvnUxOvg2Dc9itX9JjcizLnf3BnJWF4hIE5a9XuvLnB5AChf5ljo/Xh3igeeuwI+PhFrxhzYZaLOOWvssPqNdq/Ij6S6JyqBRAkHl2/J04QJCXiPoWHQbHZ0EY7L8PdFG2/u7dPVlKOeMROCLdMaPLQsmUsiqnviS7yIrJkLYjUhmxB8wmaaDO41KsRXRCKq384vIZ4ga92+y51MmAy1+/Ej+JrW3RZtX52E4XFuJBEkbxh+1gHyksH/Y1va7bo+2s0Ty+uYfHjC/F+et8kzlarXXiPBZlr32La9JADDtU35AL924s/tnWFKAr4gze02/NBqTxzTFsrfXEH++L9ObrVSq5xsy9yul/cWYHmMm4zMmXL6B1srGEjAlwgGy3jAgRdupVgeFCPF8cFlwxd30bZUk5gJm2mq3+p0YVIUhiMJT5hz6nTfgabq0hegrgi+hUP342VB8VjOTEiu35WyEd/bmqpD0hrbUmfgD39M8xfgN64jSYS/692W2aGQkgaqwQjTbTJ8XIAIIarf2EqgKN/gcY/ab7VQ+bGEwdLr+bwkAMfjlkhcWvCqT1cdqMILasC2MPj+0YScKKpf2cpJipLH7jzroKnSGVFsVujL3XcCsaxOhbxvHlrSyFhKdRsBGmDLzBzbLZuchWXdUMQTJYVsPH7EQXVvVyE4dl37vir0i0JUN/aXJL4ZG9700LWAQgKgVthSu7TWr2JK8UyA5XGTQl717aylmsfZCb6F4e3DE7IwPG3DiyyKezb/9i1NGEhArRFSrc6tXkVHUP32Vo7kJrruWeygksf8GDqXFqyIC8cv2uqDwqPLdvdwgBkJqBuC6ZR9YONBAZYTE0TGBy8/fslJ5UJ/0tyuQ2YXJmF4hEHkeWr08R63rGAgAXVFsKX1Gw8fFxSP4Q9kxWZOyuTf23bWVqVTfgRHK63t82kYXgCMInJWPThwwgguEgdfh+CYNr7mimdpeh8k8l//d7rqFAAk2PZO3Z+6+uKX00OKioL39h5kBgVJwNdjsIx6zF2XgF8I0Od9gfPkcwsb2qlG7jYh1ek0bIW7EL+KdijcbV/bPB1L9TtMCeSKb5bX+rfV4fi94RWi/EtGtcxTgRrnhDR315Z9BX74ZfOQkXGZCxsZs1RjwAZUIjh22cPKMrypfqcrRXLXjn/a/xbdM9Y4ZrY//ubqj+FCUpSyauRJXZULbwOKcLQHX5yWyMVymeMT4b7hwC4nJn0DggTHQrfJvGml+A0kSBR/9cUQRw0YSICcEJyw4tvzp2UJcRxMSG7pqX1Ddllr0HMKTnA0u/TcPyvDC7uNMiQuCn5x/ZKxPT0bFmCKY2XT7vXUFC6OMRMUvmPqpj6xdjQs2UjwLXTPzn921TMSUd2K/0GKw/OfXWxiCDXSgLyxNfP67juVhOc9F9ys6Y9O3qJdRS9CarJr4Ts3HONQwsD1e3o10KDtshFgjODYDV70rgDPm695wuhzu4/o0qowPYNpN7D13RA/7GYkPrzwwPXHfuyirVY164ASMVjGjbYtv+mJY84a4iZeGP14V2gYXQYTttREv9nzX/KFEkR1230OSbwDf5nbPk0dy3IDpWGHhTbaXHHaDFH9wn+J5OZMudu6sxktskwImblB+z2/rMXu3B4iI5Ncn7fTs4Jii0CxCJZe/zMbkrE8M8wL3zFjaYf7+N8UR3BSizv+fTTZG7/pnaT0wqYfYnVgHAEKR0i19DocnhmAYUENH1KScPPczsU2mlh/CeUt6Lx48wu3UjFuIwmK8rxyaMku4zC6xa8BPbE5VjY9T5fk4FhmjRR5uT1Z0sgE40RvhobBT5sz3RJEuA0kPpKE4A1vmjiEQYwEKAvBT73V/3QQ1a9+pUixYM27Fg2wvbGc0LC9nukuwLAkCQqfOPyEkz0MJECZCKl2bN/TN3Esie7jww2Ydq2nszmOezmEdmzv0xcS8dv/9fHxWzm3w1ZzWgStgWqxzM3efS46HLtpuk9F/DXjzpvbBthlanK0nJv/MTULv/O/PuLSkH2tGljhOPoCNcDITT88OScCx8GEjA9+d69rLgujb4Pgazg0GTE9ieqm+RISea3Z8HigOdUtBNQXgxXa41qhF4brfh9S7LluWevBJrhU7CEY9sbd34wPEGC38YV4wsCyA11VtII/oAlCZpbW4lUMhlUEK27fCpy+bMiuUBw2JAi+hcGRncuvlGI36iJe+NWyzT/pQiUBQDWZyYlhyzO8JYjqj+JLSJA/7W7fTpRngJcPJKEvj++N8cTvvj0yImf6te/14NgewAAhNTny9GFyPHYz9woij5V7euk7WVCZAMsPq9+t776CBAxjSpKkEJfeaea4haeBmiL45sXpI54le2M4mCCxIG7ib0POOmuzqNnmJGTmt7pvmb3KH7tjez4+4vig5UMHQN1WgA9Clup88q+JAQLcDqdVEBWtLRkzr22nUA2+suMBBEOqqfd256F15S2DqG6H/0Di8MAZ8zoaWNC3lCVQSXxNm34/T0zEcBJfUYAgKWjl7z90NVFyuWPC0sym/8UVwVhevixOmXit51Ys8/iAeitf5ji2vuuag2H+VcXR+YjACcdaZBulKi9owrcw7tRu3tEMbxJR/fhfitgx7be2aVoYbG4B8F8Eg2mi32JTSU4EovpDqQQpKkqeMfJe41taSikNxpZqFqf3+WN8tDeGMxJeeMCkkW3zTJkQJAGYYliaDmzzKiYBxzJrFcGBgJIHCxs7hMkU/GNMMGSaupeG7l3lH45fKVzE4yaeutsmTQtqGwGcsZmmg1stK8CyMpKPj0SQWLh3we0GufaKHEvY9rmDblxcvjoFyyMFkqSpc9ramloqsAEAkAOCzazXcIvLlXiqP5lKIVKw9lTm0x/S72vLFPP8HI3cQR2vv352MzECx4s+xB5T/2gx2ETKhiAJwB7BtszN3vlwB36nTSogMiohY8KrYYsb6FjIe4pP8JnmBpfa7v/1VJZQQiKqH/ULiOsXs/feQG0ZLG0ATRBs7e7H3LxJhKj+eipVce7k6P52XY3sGXL8dSbYUjOHlwufuHnzSET1I1aifBCN+/WyrQVMSACd8FMNbmw6iGWwoAIZWZo8dczSHxo7GqcyCDl8WwTBMbv109BRM4I9cSx6Ww5Frh2zKFYHUlsB3TBMTwwri8N2MEFib/81kw89Wtgs+5aOBp/NJr5uRCEINptvb2ao33HL0herdnjhd2LvPZKbP/6vnwzt5d3LACgeYW+0+PfJHlGI6s+oamR84IWZdxe06z7IwckulVX3ih1sGcvKxMGxUfsDr8eGrMXwLoqPRH6nNjUvliqimwFQPDZLr51LcBF2NTr+gRBPIvJKLtlw9+Kino0Hb61nrsFiSjn8msMJbAZHam9hVc+m4duWb+6uWBXny5XguGPzniQ8+dfeaeYQbAW0xWaadNpyKCMe38GkIgYb6e2Z4+42dYXLns29e569NNix2MmKZSnjMxjsCkQF9j8Y/PJBRDNXt0vXxs0WXbx7bmJBXE5peKQEUf0gVShfybmP3ZweCnfbAFpjM42OnJkZF47tL/ZHSCJM8HB3Wzex7N3p1yOu92xkW1w/V1vL3Fwz1cLCIjU1VVNT09zc3ErLTNvEyLnbjS1/73mV+UthRoCvEL+E1v+DeILAGUs76GFXMRuAOmMWN3s0Pg7TfY3/IoVFpR7uIeNd5i4Y0qJd+w4n+zet0L//yQ4dOnx/o32zdm37HD/sMj4kKMcXy5IKn0PCHRNf/9gF79sKAagdQqq19cbPE5Lj8f/yypE8nkQUKSzNP1g4eeL68eMfzpw58+HD8eNnlFu//peJ01xDgrPihZEiCZ7ZI/+P5GZNet7O1gxS0oCKYFuaDjr5aH1cPI7VpCtHirnC8Pii/4qP9w6PiKTFmOhDRnkW7Ourb6rkIi0AKBIh02zQYd6ErChM819VD0KRgXeud3OyhNxWoGJkWo69fp4RgOMVl6pIFDBjf39DDYi2ApVDMJimts1/d02hx/KA3oQ7po380VaLA2sboJLYUru0e5nu3lhvn9IfyS298FvzBloQbQWqiy3NzX48LgXbBHOVIIhZ1svRSgZBEqDSGBaGby8+9INVjoKQ4QddhnTNZcJAAlQem6XX7/QFPywr09MdL/7q0TPdnRRUIQ4A3NgbXD7njt8tU3TH4/q5Lv3JFK62AWqDLTUbuOjXOAHETOQIiVNWznvroAEjCVArLOvGw2fmROF+zI8uEBlZWrisl7MZrG2A2pEW9/rDNQU2huUBiT2vZG7L1qK6TwGgAjt1a4uNNxNwLmZCD0jktebO8JcmMCMBaorBrJd978l5X9jM+SbihOCyBUeKNSGTBKgvNis0fXPZVYEYArBfCUmEAeOfNtUzV9696gDgiM1yeDt/QxymN4PiTxww/XnzQeawbQPUHsFPvfV2KW3KrGEFcf1dl7XQ14GbxAH4riLLJNW557WpO8JhMKkTMsLj1Pa+nUzs+RAkAeADjvn9GyNP+ULIpPZISXjw7D6DTZkwIwHg/3DM8lovW+cJx/xqyytk+5ABxvYwIQHgc2ypSafLs1dDmkltSLzOj1m4qz6LASMJAF9gc7QG/Pks2RtR/aFiDknCA9f/dcRYVvMlggCoJ0Kamz1/HaY3eGODF79qbo9QWNoAUDWCY7G1w9JTXojqzxVfSLD6jx8720FqKwDV42gNGrI3JkGCqP5mcYRIQdys3QN0oEgaADVja2bvPkqTy/yUixTmTBl50lBKdQ8BQA9sy3rd/nwYwIViJp8hIz1LRvbbqsmBKQkAtcS3uHXy0aQsIQwmnyAJ13/KH60H6kBKGgB1wbbSb7msxC8K8l8rIBTp4Tqqj74OrG0AqCNCZjb4+rsYXziYUz6SRGSVbO/TVZvqPgGAjgi+hnW3bWVritQ9/soT5ExZ1mJgLgsqCQDwVQiOhkGTN+t3hKvxYIIkESnrTvfuZGIPMRIAvh4/9dbJwxMSqf6gqcPzXLepd6wJJJIA8G0IjlWD5r+7pqhnNr3E98LsIdn1mXDaBoBvxpaa6rd0KfAUIao/bGUTJWScO96oPgtKGwEgF2yZZtclR3eESxDVH7cSIV5k1oQR6U5MBtXND4DqIFi66Us27FCnWy7ESROfNtVLhV0bAOSJ4KQWn5y3PouLqP7ElSRh1W9t07Th/C8Acse22Np63zo/dbgZVFLkvmJJJy242gYAhSCYBm3upESpev4rWb622TnADmIkACgKm+nU7fq5uEhVPuXH42Y9fNPEIRXO/wKgQIww67cjnuWHq+hggniRa6cfa9bFCqKtACiaffH3r6evjUBUf/aKIAxw3dQyTRPWNgAoHsFgFTcbuS4lQtXqD5DcxJLffrTVgqUNAMpBSE3z2vw2xUOlyqxJhP7rfm8x2JQFUxIAlIaw1Ol62eVKqYhEVA8BcoF4osR1p3sPNGFS3bIAqBuOU/qCJwW+qpFmwl079fSQbB1IJAFA6QhOqmHj3S+uJNE+m57nHTh9ZItOxvawtAGACmyO+a3GO8+5lXJpHIAlxeFZk163hRppAFCI4IdZXxqy8aqQ6gHh64mSpjxv18DMEnZtAKAUXyN014EHBfE0zab3n/66xeBcKQwkAFCNYEjrv9z2YnUi7WImPEFO4agfBprYM2AkAQAHbJldw+Pn1nhFIapHh9pDYoH/KZe++lp8KP8MADbYltp5LWaviaR6gKi9qJyJS290sYKlDQB4Yds7Zd/bF+NFiwRYnjDozpsOg3Qg2AoAhmQm3Y4/KfSIwDwCi8Sla8bP7QC1FgHAFsNcf8iTCzkCCaJ6vKiSWJAUPevwyWINCJEAgC+GvUla08MP44qwvLYcSSLjo5/93CbbWlMKIwkAWGMzzQZ12HlodSJXgtdoUj6OJASWvNvcIc0kDDLkAaABfqpu+oF9k9YKsAqaRKaElO25d0lXE0IkANAEQXB09Fsv+yXOW4yoHkHeQ6KiHSUPjvew0YYbOwGgE4LPMsnrufTZwRSBmOp1DpIIUq6smNtmgK4VE2YkANANm2nnuHiBy6q1XpEURk0QL0qQc2rj5qaOOmFw9S8AtFRR0aRbi4suk3Z4S6gaSiI9Vpf93Dv9ljkUbAWAvgg+01TvUoulY6a6U7A9zOP6nX/4+8K3jvVSZbD3CwCtEQyZvfb9Ri2vHS10TwoXISWNIkgcUZSYPOXQmxt5oZpSBgwkAKgAgm+paZT941+ZIR5cCY9Eih5PEFk+Hwle+W5+v65OYTKoIACACuGHmd7q1n7ooyeT3OMVvNIhvZIn7Z3f6m1sMVxEAYDKIQgG06q+48u2O3/b4BqclaCQQ38875SgC+M2nWlzwiY3VcogYEICgKpiahdfajVi+9EpGWs9PIuEUXIZUZAkUlDk6bHj/IQnj7acddZhwhgCgKojGHxLKyPHl+0O7N8+rtA9KUok5pHoqwcRkuRJxNykDNdZox8t7KCvayXlMCClFQD1wJCyzHWMbGIbd2hxfOmmX6df2VEUKRJLeCRJIlSbsCxCJK98CIkK9w+6MuWhy9wDvd5eStMzstOAE78AqB2GpYa5jnWX2NttFh7ePnbiqpvuWYmlXt4CroT3UfmU4/1/P1P+f8TCoqSAq1dKxj/Zc+ZA3/aXHEPNLCxhEAFAvckstK3TGve6Pn/Oq0Njn02YVlLgdj4jOijZPS4wMM7d3T0wf8fatQFZOeWystbucI8+eGHluEOb5u683CG72ETLAsoqAgDKEWwGx5JlXk93q22nRo1vn+zZvNXl68d373zz98WL89+8eTP/r/2Prh17/vsff4x8Pufa4TfH+/S73Wigs4OTlgZTxofICADg/xB8maV9WKq5lradjolxqLWhroNBcbGBQfl/b9nY2qbl6evr53VOc9QzsHYytUplWcrgeB4AoE74TCbTnsVi2dszpVT/LQAAAAAAAAAAAAAAAAAAAACA2vgfqNCcB5C+28kAAAAASUVORK5CYII=;" vertex="1" parent="1">
          <mxGeometry x="-1320" y="170" width="370.1" height="393.7" as="geometry" />
        </mxCell>
        <mxCell id="frnAXGXN-ctxnkz8FH66-3" value="&lt;font style=&quot;font-size: 150px;&quot;&gt;SimComm&lt;/font&gt;" style="text;html=1;align=center;verticalAlign=middle;resizable=0;points=[];autosize=1;strokeColor=none;fillColor=none;fontColor=#7b193b;fontStyle=1;fontFamily=Bahnschrift;labelPosition=center;verticalLabelPosition=middle;rounded=0;labelBorderColor=none;labelBackgroundColor=none;" parent="1" vertex="1">
          <mxGeometry x="-920" y="271.85" width="710" height="190" as="geometry" />
        </mxCell>
      </root>
    </mxGraphModel>
  </diagram>
</mxfile>
